<svg width="201" height="182" viewBox="0 0 201 182" fill="none" xmlns="http://www.w3.org/2000/svg">
<path d="M96.2993 117.715C97.6133 117.574 98.7705 117.454 99.9128 117.32C103.123 116.939 106.333 116.917 109.551 117.141C114.083 117.462 118.562 118.171 122.989 119.179C123.116 119.209 123.251 119.231 123.378 119.261C123.699 119.35 123.848 119.223 123.938 118.902C124.177 118.066 124.46 117.245 124.729 116.416C126.976 109.533 131.538 104.792 138.078 101.813C142.318 99.8796 146.738 99.245 151.345 99.5586C152.211 99.6183 153.062 99.7378 153.958 99.917C154.062 98.8344 154.189 97.7892 154.256 96.744C154.547 92.2571 155.802 88.0389 157.728 83.9999C158.191 83.0219 158.624 82.0364 158.997 81.0136C160.236 77.5868 160.154 74.1749 158.818 70.8153C158.011 68.7921 156.6 67.1795 155.04 65.7013C152.494 63.2973 149.359 62.0207 146.089 61.0128C143.379 60.1766 140.586 59.7809 137.787 59.445C135.144 59.1314 132.501 58.8029 129.851 58.5565C127.775 58.3624 125.692 58.2355 123.617 58.1758C118.868 58.0339 114.12 58.0339 109.372 58.1832C106.124 58.2803 102.884 58.5117 99.7485 59.43C97.3595 60.1318 95.0451 61.0352 93.1712 62.7523C89.8041 65.8207 88.1392 69.6357 88.2363 74.2123C88.3109 77.7361 89.2143 81.0883 90.2894 84.4105C90.9986 86.6204 91.8497 88.778 92.3425 91.0551C92.6859 92.6527 92.9995 94.2579 93.0816 95.8929C93.0965 96.1542 93.0965 96.423 93.0741 96.6843C93.0443 97.0426 92.8501 97.2741 92.4769 97.3114C92.111 97.3487 91.8348 97.1471 91.7676 96.7291C91.6705 96.1019 91.6482 95.4673 91.5511 94.8402C91.133 92.0928 90.4014 89.4275 89.4756 86.8145C88.4005 83.7759 87.4748 80.7 86.9671 77.5121C86.2429 72.9804 86.7954 68.6801 89.386 64.7681C91.0136 62.3044 93.1562 60.4752 95.8439 59.2359C98.8601 57.8473 102.033 57.1604 105.318 56.8991C111.664 56.3915 118.025 56.4885 124.378 56.6826C130.291 56.8618 136.152 57.6233 141.997 58.4893C145.379 58.9895 148.62 60.0348 151.688 61.5354C154.794 63.0584 157.287 65.3056 159.169 68.1874C160.99 70.9796 161.603 74.1003 161.364 77.4076C161.214 79.5727 160.527 81.581 159.646 83.5445C159.139 84.6718 158.654 85.8141 158.153 86.9489C156.683 90.2488 156.07 93.7353 155.764 97.3039C155.69 98.17 155.652 99.0434 155.57 99.9095C155.533 100.313 155.667 100.529 156.055 100.678C156.892 100.999 157.661 101.47 158.415 101.955C161.028 103.635 163.245 107.719 161.528 112.026C160.901 113.609 159.99 115.028 158.84 116.289C158.586 116.573 158.437 116.879 158.318 117.238C157.295 120.313 156.242 123.382 155.212 126.45C153.719 130.9 152.136 135.32 150.941 139.859C150.255 142.487 149.665 145.137 149.15 147.802C148.62 150.565 148.746 153.297 149.314 156.045C149.904 158.912 150.367 161.801 150.523 164.735C150.561 165.496 150.561 166.265 150.367 167.019C150.15 167.848 149.799 168.587 148.881 168.789C147.955 168.998 147.246 168.535 146.663 167.863C146.23 167.355 145.954 166.758 145.738 166.131C145.058 164.205 144.73 162.204 144.357 160.211C144.222 159.486 144.095 158.755 143.834 158.06C143.528 157.232 143.162 157.045 142.311 157.269C141.721 157.426 141.176 157.702 140.654 158.008C137.705 159.71 134.644 161.181 131.493 162.473C131.277 162.562 131.06 162.674 130.814 162.667C130.522 162.659 130.313 162.532 130.194 162.264C130.075 161.987 130.149 161.734 130.358 161.547C130.515 161.413 130.702 161.308 130.896 161.226C134.128 159.8 137.257 158.158 140.347 156.44C140.9 156.134 141.482 155.888 142.102 155.739C143.498 155.41 144.543 155.918 145.14 157.217C145.581 158.187 145.738 159.233 145.924 160.27C146.23 161.928 146.522 163.593 147.037 165.205C147.194 165.705 147.373 166.206 147.664 166.654C147.813 166.878 147.97 167.087 148.216 167.206C148.44 167.318 148.627 167.281 148.739 167.042C148.888 166.728 148.941 166.392 148.963 166.041C149.053 164.638 148.888 163.249 148.709 161.861C148.41 159.531 148.007 157.217 147.552 154.917C147.089 152.581 147.186 150.251 147.582 147.922C148.679 141.539 150.523 135.357 152.644 129.243C153.704 126.182 154.734 123.106 155.779 120.037C155.861 119.798 155.936 119.559 156.018 119.321C155.831 119.261 155.757 119.335 155.675 119.403C152.659 121.635 149.291 123.188 145.82 124.547C144.566 125.039 143.289 125.465 141.982 125.771C141.46 125.89 141.206 126.144 141.064 126.674C139.153 133.722 136.973 140.695 134.838 147.676C134.375 149.191 133.837 150.677 133.218 152.133C132.06 154.865 130.351 157.157 127.887 158.859C127.32 159.248 126.767 159.658 126.282 160.143C125.834 160.599 125.453 161.099 125.229 161.711C125.065 162.167 125.125 162.256 125.61 162.316C126.267 162.398 126.909 162.54 127.521 162.794C129.014 163.413 129.813 164.518 129.821 166.153C129.828 167.258 129.828 168.371 129.821 169.476C129.791 172.432 129.589 175.381 129.164 178.308C129.074 178.935 128.94 179.554 128.671 180.129C128.081 181.369 126.834 181.458 126.058 180.323C125.752 179.883 125.61 179.375 125.498 178.853C125.125 177.143 125.02 175.403 124.908 173.671C124.707 170.566 124.415 167.467 124.065 164.377C124.005 163.817 123.997 163.802 123.43 163.854C121.802 164.011 120.197 164.332 118.585 164.6C115.113 165.175 111.619 165.369 108.103 165.235C106.625 165.175 105.154 165.108 103.676 165.063C101.063 164.974 98.4793 164.608 95.8962 164.197C92.3051 163.63 88.7066 163.063 85.1753 162.196C81.4648 161.293 77.7767 160.278 74.1932 158.941C73.4764 158.673 73.5735 158.576 73.1927 159.322C72.0878 161.51 71.0202 163.72 69.9302 165.914C69.2359 167.311 68.4818 168.669 67.6755 169.998C67.25 170.7 66.802 171.387 66.1973 171.947C65.6598 172.447 65.0476 172.835 64.2711 172.499C63.4723 172.148 63.3006 171.447 63.323 170.663C63.3454 169.729 63.5694 168.834 63.868 167.96C64.8385 165.116 66.0181 162.346 67.138 159.561C67.6083 158.389 68.0861 157.217 68.5042 156.022C69.3105 153.708 69.3329 151.379 68.773 149.012C68.1683 146.496 67.3022 144.062 66.5557 141.591C65.6075 138.433 64.8087 135.238 64.3533 131.968C64.1591 130.557 64.0322 129.138 63.9874 127.712C63.9202 125.651 63.4947 123.703 62.5839 121.836C61.7776 120.179 60.9787 118.514 60.5532 116.7C60.1575 114.99 60.053 113.273 60.2769 111.519C60.7772 107.502 63.9277 105.262 67.2052 104.926C67.6979 104.874 68.1085 104.732 68.5042 104.449C72.6029 101.567 77.1272 99.7154 82.0845 98.9464C84.2272 98.6104 86.3848 98.4761 88.5499 98.7224C92.4246 99.1704 95.1123 101.253 96.7473 104.747C97.9045 107.204 98.1658 109.802 97.9119 112.474C97.7104 114.251 97.255 115.968 96.2993 117.715ZM141.788 124.166C142.057 124.203 142.229 124.136 142.408 124.091C143.737 123.748 145.014 123.255 146.283 122.732C150.202 121.12 153.965 119.246 156.974 116.133C158.25 114.804 159.318 113.348 160.035 111.653C161.364 108.495 160.274 104.986 157.407 103.105C156.003 102.179 154.48 101.5 152.823 101.246C150.202 100.85 147.567 100.917 144.939 101.291C142.079 101.694 139.437 102.717 136.913 104.075C132.449 106.472 129.059 109.891 127.043 114.602C125.856 117.379 125.035 120.261 124.393 123.203C123.4 127.764 122.422 132.326 121.086 136.798C120.526 138.672 119.846 140.501 118.958 142.24C116.95 146.16 113.829 148.669 109.491 149.587C107.834 149.938 106.147 150.057 104.459 150.08C99.4051 150.139 94.403 149.676 89.4457 148.691C86.8999 148.183 84.4362 147.414 82.1517 146.175C79.1878 144.562 76.9704 142.285 76.0148 138.97C75.4325 136.97 75.0741 134.909 74.9771 132.819C74.8203 129.369 74.6038 125.92 74.6411 122.456C74.6411 122.284 74.7083 122.09 74.5217 121.911C74.3051 121.911 74.1708 122.09 73.999 122.195C73.4391 122.546 72.8344 122.807 72.1699 122.912C70.4827 123.165 68.9671 122.695 67.6307 121.71C62.8676 118.216 62.4346 111.437 65.2716 107.398C65.3686 107.263 65.5478 107.159 65.4731 106.868C63.7635 107.607 62.5391 108.749 62.0239 110.541C61.5013 112.355 61.576 114.192 61.9567 116.021C62.3226 117.797 63.0915 119.418 63.8904 121.023C64.958 123.173 65.4433 125.435 65.503 127.809C65.5403 129.257 65.6896 130.706 65.9061 132.139C66.384 135.297 67.1679 138.388 68.1011 141.442C68.8701 143.965 69.7809 146.444 70.3184 149.027C70.617 150.453 70.7813 151.886 70.6245 153.35C70.4379 155.104 69.8705 156.739 69.2359 158.359C68.0861 161.278 66.914 164.182 65.7568 167.102C65.4134 167.96 65.1222 168.834 64.9505 169.744C64.8833 170.11 64.7863 170.484 64.9281 170.879C65.2865 170.737 65.4283 170.469 65.6075 170.245C66.1973 169.498 66.6602 168.662 67.1305 167.841C68.5565 165.34 69.751 162.727 71.0202 160.143C71.401 159.36 71.8041 158.591 72.2222 157.829C72.6477 157.06 73.0061 156.956 73.8572 157.269C74.4022 157.471 74.9472 157.672 75.4922 157.851C78.4263 158.814 81.3827 159.681 84.3839 160.382C91.7601 162.099 99.2035 163.436 106.811 163.637C109.85 163.72 112.881 163.772 115.897 163.384C118.383 163.063 120.847 162.644 123.325 162.286C123.617 162.241 123.721 162.107 123.773 161.838C123.997 160.591 124.699 159.621 125.595 158.762C126.155 158.232 126.767 157.777 127.387 157.329C129.238 155.97 130.59 154.208 131.553 152.14C132.292 150.557 132.874 148.922 133.382 147.257C135.226 141.21 137.122 135.17 138.824 129.078C139.071 128.19 139.325 127.309 139.578 126.406C139.16 126.271 138.802 126.383 138.444 126.428C136.995 126.615 135.539 126.704 134.114 126.338C130.59 125.428 128.693 123.427 128.283 120.254C127.939 117.574 128.238 114.916 129.432 112.452C130.724 109.772 132.792 108.107 135.883 107.92C140.116 107.666 142.214 110.227 142.863 113.012C143.043 113.781 143.11 114.572 143.125 115.364C143.177 117.947 142.639 120.448 142.042 122.934C141.93 123.352 141.766 123.718 141.788 124.166ZM123.408 120.709C123.094 120.634 122.84 120.575 122.586 120.523C119.973 120.015 117.345 119.604 114.717 119.201C108.595 118.26 102.481 118.305 96.3665 119.261C96.0007 119.321 95.7469 119.455 95.5229 119.761C93.7908 122.075 91.7601 124.099 89.4159 125.801C87.5046 127.182 85.4963 128.377 83.2491 129.123C82.5922 129.34 81.9202 129.452 81.2259 129.407C79.8074 129.31 79.0534 128.235 79.4565 126.868C79.5909 126.406 79.8298 125.995 80.121 125.614C80.7183 124.83 81.435 124.181 82.2263 123.598C85.6307 121.105 89.4457 119.477 93.4997 118.395C94.2462 118.193 94.6643 117.82 95.0078 117.178C96.2023 114.968 96.4636 112.579 96.4188 110.123C96.3889 108.443 96.0231 106.83 95.2989 105.307C93.9999 102.582 91.9543 100.805 88.9157 100.313C87.3703 100.059 85.8174 100.081 84.2645 100.223C79.3669 100.656 74.8427 102.172 70.6917 104.815C70.5499 104.904 70.3707 104.956 70.3184 105.143C70.3707 105.188 70.3856 105.218 70.408 105.225C70.5797 105.292 70.7514 105.352 70.9231 105.419C72.7821 106.128 74.2902 107.301 75.3429 108.973C77.2541 112.004 77.7469 115.259 76.515 118.656C76.1492 119.664 76.0895 120.642 76.1044 121.672C76.1343 124.838 76.2836 127.996 76.3956 131.161C76.4702 133.274 76.7465 135.357 77.1571 137.433C77.7917 140.65 79.6282 142.972 82.398 144.607C83.9509 145.518 85.6083 146.197 87.3479 146.66C90.5432 147.504 93.7983 148.004 97.0832 148.295C100.555 148.609 104.034 148.743 107.505 148.392C112.246 147.914 115.695 145.578 117.786 141.27C118.51 139.769 119.115 138.224 119.593 136.634C121.145 131.423 122.213 126.092 123.408 120.709ZM141.624 115.856C141.654 115.117 141.564 114.378 141.43 113.654C141.116 111.914 140.265 110.518 138.593 109.832C136.868 109.122 133.837 109.167 132.045 111.243C131.403 111.989 130.851 112.78 130.508 113.706C129.813 115.535 129.574 117.447 129.671 119.373C129.821 122.352 131.418 124.323 134.875 124.995C136.488 125.308 138.07 125.002 139.661 124.778C139.982 124.733 140.086 124.517 140.153 124.24C140.31 123.628 140.474 123.016 140.616 122.404C141.139 120.246 141.564 118.081 141.624 115.856ZM75.6341 115.199C75.6266 113.423 75.2085 111.862 74.4097 110.399C73.245 108.286 71.498 106.98 69.1164 106.509C68.564 106.397 68.1757 106.532 67.7651 106.912C65.2865 109.219 64.6444 112.094 65.2566 115.296C65.6598 117.409 66.7423 119.164 68.4893 120.478C69.2508 121.045 70.1168 121.381 71.0426 121.456C72.6477 121.59 73.7527 120.754 74.5142 119.418C75.2608 118.074 75.5743 116.61 75.6341 115.199ZM93.2309 120.112C93.1338 120.037 93.0293 120.06 92.9323 120.089C89.3188 121.172 85.9219 122.703 82.8833 124.965C82.3309 125.375 81.8381 125.846 81.4051 126.383C81.2035 126.63 81.0318 126.898 80.9198 127.197C80.763 127.645 80.8825 127.846 81.3528 127.906C81.5619 127.929 81.7709 127.906 81.98 127.876C82.6668 127.787 83.3089 127.533 83.936 127.257C87.4897 125.674 90.491 123.359 93.0517 120.44C93.1264 120.343 93.2234 120.254 93.2309 120.112ZM127.297 179.248C127.581 178.681 127.611 178.106 127.693 177.539C128.066 174.978 128.171 172.402 128.275 169.819C128.328 168.58 128.335 167.34 128.342 166.109C128.342 165.69 128.335 165.257 127.977 164.944C127.439 164.466 126.834 164.1 126.118 163.958C125.58 163.854 125.528 163.891 125.595 164.451C125.968 167.803 126.252 171.163 126.483 174.522C126.566 175.754 126.663 176.994 126.909 178.211C126.976 178.554 126.999 178.935 127.297 179.248Z" fill="#303030"/>
<path d="M31.1679 111.937C31.0037 111.25 30.5408 110.802 29.9659 110.459C29.4657 110.153 28.8983 110.026 28.3235 109.914C27.002 109.66 25.6582 109.578 24.3143 109.473C21.3728 109.242 18.4238 109.048 15.4823 108.809C14.2729 108.712 13.0709 108.547 11.9062 108.182C11.0103 107.905 10.1965 107.487 9.49476 106.868C8.34503 105.86 7.98667 104.635 8.45701 103.157C9.00202 101.425 10.1443 100.201 11.6449 99.2749C13.8697 97.8937 16.311 97.1024 18.8718 96.6021C22.7017 95.8556 26.569 95.7361 30.4512 95.751C36.3641 95.7734 42.1799 96.5051 47.8913 98.0356C49.2948 98.4089 50.676 98.8419 51.9601 99.5437C52.5648 99.8722 53.1472 100.238 53.6623 100.693C55.7751 102.545 56.0812 105.501 54.3566 107.734C53.5354 108.794 52.4753 109.57 51.3181 110.227C49.6009 111.198 47.7196 111.728 45.8083 112.116C41.9037 112.915 37.9468 113.348 33.9601 113.527C33.878 113.527 33.8033 113.535 33.7212 113.535C33.3927 113.512 33.2434 113.617 33.3031 113.99C33.3703 114.43 33.3703 114.886 33.4151 115.326C33.6316 117.462 33.445 119.597 33.3106 121.724C33.1613 123.987 32.9896 126.249 32.8701 128.511C32.6013 133.7 32.6312 138.896 32.5864 144.092C32.5864 144.331 32.5939 144.57 32.5566 144.801C32.4819 145.212 32.1459 145.481 31.7801 145.451C31.4292 145.428 31.1828 145.182 31.1157 144.779C31.0933 144.652 31.0933 144.518 31.0933 144.383C31.153 139.269 31.0709 134.148 31.3322 129.034C31.474 126.294 31.7055 123.561 31.8697 120.821C31.9966 118.581 32.0787 116.342 31.8025 114.102C31.7577 113.766 31.7278 113.505 31.2724 113.49C28.9804 113.445 26.6885 113.415 24.4114 113.841C22.0522 114.289 20.1708 115.52 18.6403 117.327C16.9083 119.38 15.6466 121.725 14.4819 124.121C12.496 128.197 10.8834 132.445 9.00202 136.566C8.14345 138.463 7.32968 140.381 6.49351 142.285C6.2994 142.733 6.00077 142.897 5.64242 142.778C5.30646 142.666 5.11981 142.293 5.22433 141.86C5.29899 141.554 5.43337 141.262 5.54536 140.971C7.13557 136.895 9.00948 132.938 10.6893 128.892C11.7942 126.234 12.9887 123.621 14.3475 121.09C15.1613 119.574 16.0796 118.133 17.1397 116.782C19.3944 113.885 22.3583 112.355 26.0091 112.079C27.5097 111.967 29.0103 111.892 30.5109 111.952C30.72 112.012 30.929 112.049 31.1679 111.937ZM29.9659 97.2666C24.9639 97.2591 22.3135 97.4756 18.603 98.2073C16.4155 98.6403 14.34 99.3869 12.4288 100.559C11.3537 101.223 10.4653 102.067 10.0024 103.284C9.51716 104.546 9.75606 105.3 10.8834 106.061C11.7569 106.651 12.7498 106.912 13.7652 107.077C16.0348 107.442 18.3268 107.51 20.6188 107.704C23.0601 107.905 25.5163 108.002 27.9502 108.323C30.1526 108.615 31.9668 109.421 32.7656 111.698C32.8626 111.967 33.0568 112.049 33.3181 112.034C33.5794 112.019 33.8481 112.019 34.1094 112.012C36.7225 111.944 39.3131 111.623 41.9037 111.28C44.0763 110.989 46.2264 110.593 48.3094 109.906C50.0116 109.346 51.5644 108.532 52.8187 107.226C53.8938 106.099 54.2521 104.785 53.722 103.291C53.3861 102.351 52.6694 101.731 51.8481 101.223C50.6536 100.477 49.3396 100.007 47.9883 99.6333C41.9784 97.9758 35.849 97.2218 29.9659 97.2666Z" fill="#303030"/>
<path d="M55.2747 141.673C55.2897 142.128 55.0956 142.427 54.7671 142.524C54.4236 142.621 54.1026 142.487 53.9085 142.128C53.8264 141.972 53.7741 141.785 53.7293 141.606C52.0047 134.999 50.0263 128.466 48.3764 121.836C47.809 119.559 47.264 117.275 46.719 114.998C46.6966 114.893 46.6667 114.789 46.6592 114.684C46.6294 114.259 46.8085 113.96 47.1445 113.893C47.5103 113.818 47.7642 113.997 47.906 114.311C48.0031 114.527 48.0553 114.759 48.1151 114.99C49.6082 120.455 50.9446 125.965 52.5049 131.415C53.4158 134.61 54.2594 137.821 55.1329 141.023C55.1851 141.262 55.2299 141.494 55.2747 141.673Z" fill="#303030"/>
<path d="M127.387 13.1497C127.379 13.2393 127.364 13.3214 127.379 13.3886C127.775 15.255 127.835 17.1513 127.939 19.0476C128.074 21.5188 127.82 23.9452 127.424 26.3641C127.103 28.3201 126.334 30.1045 124.938 31.5677C124.811 31.7021 124.699 31.8589 124.55 31.9634C123.281 32.8519 121.944 33.5163 120.354 33.6358C117.905 33.8149 115.598 33.3446 113.336 32.4188C110.566 31.2766 108.006 29.776 105.572 28.0439C104.758 27.469 104.049 26.7523 103.272 26.0804C102.817 26.2969 102.436 26.6254 102.055 26.9539C101.018 27.8498 99.8829 28.6188 98.7854 29.4325C97.5163 30.3732 96.2695 31.3363 94.9331 32.2023C93.9625 32.8295 92.9696 33.4342 92.0513 34.1434C91.8423 34.3077 91.6108 34.4271 91.3271 34.4271C90.7523 34.4271 90.4686 33.9792 90.7075 33.4566C90.8269 33.1953 91.0434 33.0609 91.2749 32.9265C92.8053 31.9933 94.2462 30.9257 95.6423 29.8133C96.3815 29.2235 97.1952 28.7308 97.9567 28.1634C99.2409 27.1928 100.45 26.1327 101.794 25.2442C101.899 25.1696 101.996 25.0725 102.085 24.9829C102.212 24.856 102.242 24.744 102.1 24.5798C101.503 23.8631 101.152 23.012 100.816 22.1459C100.286 20.7872 100.368 19.4508 100.876 18.1368C101.286 17.0692 101.921 16.136 102.727 15.3147C103.989 14.0157 105.482 13.0302 107.065 12.1866C108.364 11.4923 109.723 10.9174 111.067 10.3127C112.396 9.71541 113.792 9.34212 115.158 8.87924C115.897 8.62541 116.703 8.55075 117.502 8.74486C118.615 9.02109 119.092 9.84233 118.779 10.9473C118.473 12.0223 117.741 12.8361 117.069 13.6723C116.584 14.2919 116.009 14.8444 115.449 15.3894C113.934 16.8602 112.418 18.316 110.82 19.6972C109.028 21.2426 107.222 22.7805 105.415 24.3185C105.139 24.5574 104.825 24.759 104.512 24.9979C105.646 26.267 106.983 27.2376 108.401 28.0887C109.394 28.686 110.38 29.2907 111.418 29.8282C113.067 30.6719 114.77 31.3662 116.561 31.844C118.196 32.277 119.839 32.3293 121.481 31.8738C123.154 31.411 124.244 30.2986 124.998 28.7979C125.67 27.4616 125.983 26.0132 126.148 24.5424C126.446 21.8921 126.566 19.2417 126.23 16.5765C126.103 15.5835 126.08 14.5756 125.864 13.5976C125.767 13.1347 125.64 12.6793 125.543 12.2164C125.498 11.9775 125.341 11.8581 125.155 11.7461C123.997 11.0593 122.915 10.2679 121.825 9.47651C121.011 8.87924 120.272 8.19239 119.645 7.42342C118.286 5.73615 118.413 3.81744 120.085 2.27949C121.646 0.838598 123.467 0.248802 125.55 0.890859C127.223 1.406 128.417 2.45121 128.798 4.22806C128.985 5.11649 128.858 6.00492 128.604 6.88588C128.275 8.04308 127.685 9.06589 127.103 10.0962C126.707 10.7979 126.7 10.7979 127.409 11.2384C129.313 12.418 131.321 13.4259 133.292 14.4786C135.062 15.4193 136.853 16.3152 138.6 17.2932C141.915 19.1372 145.208 21.0335 148.515 22.885C151.688 24.6619 154.883 26.394 158.056 28.1783C159.639 29.0742 161.192 30.0223 162.737 30.9705C166.709 33.4193 170.756 35.7486 174.921 37.8539C177.885 39.3546 180.939 40.6685 184.127 41.6242C185.62 42.0721 185.583 42.2065 185.672 40.5118C185.754 38.9514 186.165 37.4508 187.173 36.2563C188.547 34.6213 190.839 34.4271 192.302 36.4205C194.504 39.4143 192.264 42.6619 189.89 43.3562C189.092 43.5877 188.308 43.7444 187.486 43.737C187.106 43.7295 186.971 43.8714 186.986 44.2446C187.038 45.6407 187.068 47.0368 187.106 48.4329C187.113 48.6196 187.143 48.7988 187.143 48.9854C187.165 51.9344 187.165 54.8909 187.218 57.8398C187.285 61.5055 187.292 65.1712 187.337 68.8295C187.352 70.121 187.345 71.4126 187.374 72.6967C187.419 74.8021 187.382 76.9149 187.509 79.0202C187.606 80.7075 187.539 82.3948 187.658 84.0746C187.785 85.7618 187.703 87.4491 187.815 89.1289C187.919 90.637 187.822 92.1302 187.815 93.6308C187.807 95.766 187.68 97.9012 187.673 100.029C187.673 101.925 187.509 103.822 187.524 105.71C187.546 107.637 187.367 109.555 187.367 111.474C187.367 112.9 187.21 114.311 187.18 115.729C187.106 118.552 186.814 121.359 186.59 124.166C186.426 126.264 186.045 128.347 185.605 130.415C185.351 131.609 185.09 131.452 186.426 131.818C188.673 132.43 190.839 133.252 192.809 134.513C193.653 135.051 194.459 135.648 195.251 136.26C196.46 137.201 197.64 138.172 198.722 139.254C199.581 140.105 200.395 141.024 200.85 142.173C201.186 143.024 200.97 143.368 200.081 143.599C198.73 143.95 197.349 144.137 195.967 144.338C192.279 144.868 188.569 145.033 184.866 145.301C184.291 145.346 183.709 145.354 183.126 145.369C180.834 145.436 178.542 145.54 176.25 145.593C174.481 145.63 172.727 145.488 170.965 145.451C168.128 145.391 165.365 144.809 162.573 144.45C162.155 144.398 161.744 144.286 161.364 144.092C161.02 143.92 160.886 143.599 160.975 143.233C161.065 142.883 161.304 142.696 161.662 142.688C161.871 142.688 162.088 142.711 162.289 142.756C165.612 143.54 169.001 143.853 172.398 144.002C176.086 144.159 179.774 144.01 183.462 143.778C183.992 143.749 184.515 143.719 185.045 143.711C187.18 143.696 189.308 143.48 191.428 143.278C193.683 143.062 195.953 142.965 198.185 142.532C198.483 142.472 198.79 142.405 199.155 142.323C198.819 141.71 198.461 141.195 198.021 140.747C195.699 138.336 193.093 136.305 190.099 134.79C188.636 134.051 187.091 133.528 185.508 133.11C185.038 132.99 184.926 133.17 184.784 133.535C184.239 134.939 183.604 136.29 182.693 137.507C181.648 138.888 180.409 140.038 178.968 140.994C177.691 141.837 176.258 142.173 174.809 142.36C173.324 142.554 171.883 142.143 170.681 141.285C169.509 140.441 168.882 139.239 169.233 137.709C169.419 136.902 169.718 136.148 170.226 135.491C171.024 134.461 171.95 133.61 173.107 132.953C175.758 131.437 178.617 130.922 181.618 130.997C182.171 131.012 182.723 131.102 183.268 131.154C183.88 131.214 183.888 131.214 184.045 130.586C184.373 129.28 184.575 127.958 184.724 126.615C184.911 124.86 185.232 123.113 185.314 121.351C185.433 118.828 185.739 116.312 185.747 113.781C185.747 112.467 185.948 111.146 185.926 109.832C185.896 107.622 186.15 105.412 186.06 103.202C186.038 102.545 186.128 101.888 186.15 101.223C186.217 98.6926 186.299 96.1617 186.329 93.6308C186.359 91.7046 186.404 89.7784 186.292 87.8597C186.202 86.1725 186.277 84.4852 186.143 82.8054C186.016 81.1704 186.083 79.5354 186.001 77.9078C185.822 74.4288 185.881 70.9497 185.822 67.4781C185.792 65.7386 185.874 63.9991 185.807 62.2596C185.672 58.7805 185.747 55.3015 185.65 51.8224C185.575 49.2393 185.657 46.6561 185.56 44.0804C185.545 43.6101 185.396 43.4458 184.963 43.3562C181.611 42.647 178.513 41.2583 175.429 39.81C172.323 38.3467 169.345 36.6594 166.388 34.9273C163.521 33.2475 160.699 31.5006 157.825 29.8357C155.406 28.4396 152.942 27.1181 150.501 25.7594C148.522 24.6544 146.544 23.5495 144.573 22.4296C140.795 20.2795 137.018 18.1219 133.15 16.1285C131.366 15.2102 129.612 14.2471 127.842 13.3214C127.693 13.2393 127.573 13.1273 127.387 13.1497ZM103.496 23.8257C103.646 23.7212 103.743 23.6764 103.817 23.6092C105.146 22.452 106.52 21.3471 107.871 20.2048C109.379 18.9282 110.828 17.5769 112.306 16.2778C113.478 15.2476 114.583 14.1575 115.606 12.9929C116.181 12.3434 116.733 11.664 117.129 10.8875C117.39 10.3799 117.286 10.2007 116.726 10.2305C116.039 10.2679 115.359 10.3873 114.71 10.6038C112.687 11.2832 110.731 12.1045 108.797 13.0228C106.819 13.956 105.042 15.158 103.526 16.7258C102.72 17.5694 102.13 18.5474 102.063 19.7942C101.996 21.3172 102.474 22.6237 103.496 23.8257ZM183.365 132.789C181.267 132.423 179.304 132.415 177.318 132.923C175.825 133.304 174.376 133.782 173.145 134.715C172.092 135.514 171.144 136.432 170.793 137.798C170.517 138.881 170.95 139.799 171.965 140.247C174.705 141.471 177.064 140.538 179.244 138.896C180.252 138.134 181.051 137.134 181.76 136.074C182.44 135.058 182.895 133.953 183.365 132.789ZM127.394 5.37033C127.312 4.01902 126.745 2.89915 125.438 2.39895C124.341 1.98086 123.325 2.17497 122.295 2.56319C121.414 2.89915 120.832 3.54868 120.429 4.39231C120.182 4.91491 120.197 5.42259 120.503 5.9004C120.802 6.36328 121.108 6.81869 121.511 7.20691C122.579 8.22972 123.788 9.06589 125.05 9.83486C125.386 10.0364 125.58 9.97671 125.744 9.66315C126.237 8.73739 126.812 7.84897 127.096 6.81869C127.238 6.34088 127.372 5.8556 127.394 5.37033ZM187.904 42.1094C188.084 42.087 188.375 42.0572 188.659 42.0273C189.898 41.9004 190.749 41.2061 191.324 40.1534C192.055 38.8245 191.488 37.1895 190.152 36.6146C189.808 36.4653 189.502 36.4728 189.159 36.6072C188.487 36.8759 188.158 37.4433 187.882 38.048C187.397 39.1157 187.195 40.2579 187.113 41.4226C187.068 42.0945 187.106 42.1244 187.904 42.1094Z" fill="#303030"/>
<path d="M103.063 42.7664C103.041 42.3558 103.16 42.1468 103.257 41.9377C104.706 38.8991 106.184 35.8755 107.819 32.934C107.894 32.7996 107.961 32.6503 108.05 32.5234C108.259 32.2247 108.543 32.1277 108.879 32.277C109.185 32.4114 109.394 32.8145 109.275 33.1281C109.073 33.6432 108.834 34.1434 108.58 34.6287C107.296 37.0775 106.154 39.586 104.96 42.0796C104.788 42.4305 104.653 42.8187 104.355 43.0874C104.116 43.3114 103.832 43.4383 103.489 43.304C103.16 43.177 103.078 42.9083 103.063 42.7664Z" fill="#303030"/>
<path d="M115.427 44.9315C115.651 41.8855 115.875 38.9664 116.479 36.0995C116.509 35.9726 116.517 35.8382 116.562 35.7113C116.711 35.2708 117.017 35.0618 117.375 35.1364C117.741 35.2186 117.92 35.5247 117.861 35.995C117.778 36.5923 117.629 37.1895 117.592 37.7943C117.442 40.1609 117.069 42.5052 116.965 44.8793C116.957 45.0361 116.965 45.2003 116.92 45.3496C116.808 45.7378 116.509 45.8872 116.136 45.8946C115.785 45.9021 115.494 45.6408 115.427 45.2675C115.404 45.1182 115.427 44.9614 115.427 44.9315Z" fill="#303030"/>
<path d="M67.0633 82.8129C66.2047 81.6482 65.2193 80.6254 64.0471 79.7967C60.7846 77.4898 57.2607 75.7652 53.2889 75.0261C50.3773 74.4885 47.4806 74.3019 44.5913 75.1231C44.4121 75.1754 44.2329 75.2276 44.0538 75.2351C43.7402 75.2426 43.4789 75.1007 43.3669 74.8021C43.2549 74.5034 43.3296 74.2272 43.561 74.0032C43.7402 73.8315 43.9567 73.7494 44.1882 73.6897C46.1666 73.1596 48.1674 72.9282 50.2205 73.0924C55.566 73.5105 60.374 75.3471 64.734 78.4379C66.3018 79.5503 67.5635 80.9539 68.7282 82.4694C68.8103 82.574 68.8849 82.6859 68.9447 82.8054C69.3105 83.5296 69.0417 84.1343 68.2504 84.2911C67.556 84.4255 66.8468 84.5151 66.1375 84.5972C63.1363 84.9406 60.1351 84.9033 57.1338 84.6271C54.3565 84.3732 51.6614 83.761 49.1081 82.6486C45.7485 81.1853 42.9115 79.065 40.8584 75.9742C40.6867 75.7129 40.5225 75.5487 40.1716 75.5711C38.7157 75.6607 37.3047 75.9667 35.9086 76.3848C35.5726 76.4893 35.5726 76.7357 35.5502 76.997C35.4159 78.3334 35.274 79.6698 35.1172 81.0061C35.05 81.6109 34.953 82.2081 34.841 82.8054C34.7738 83.1712 34.8634 83.3205 35.2665 83.3504C36.8717 83.4624 38.4544 83.7386 40.0222 84.1194C40.6643 84.2762 41.2914 84.4703 41.8962 84.739C44.0314 85.7021 45.1886 87.2998 45.1438 89.6889C45.1214 91.1447 44.8825 92.5781 44.6137 94.0041C44.1658 96.3857 43.7402 98.7747 43.0235 101.097C42.7697 101.903 42.486 102.694 42.0455 103.426C41.2914 104.658 40.2089 105.434 38.7531 105.457C35.3263 105.509 31.892 105.546 28.4876 105.009C27.8605 104.912 27.2558 104.74 26.666 104.486C25.4864 103.986 24.7622 103.112 24.4934 101.858C24.2396 100.641 24.1201 99.4093 23.9484 98.1849C23.5079 95.0269 23.0973 91.8614 22.9032 88.6735C22.8808 88.3077 22.8584 87.9344 22.8808 87.5686C22.9107 87.0908 23.157 86.822 23.5303 86.8295C23.8962 86.8295 24.15 87.0833 24.1873 87.5686C24.2993 89.0692 24.4636 90.5623 24.6577 92.0555C25.0608 95.1165 25.4341 98.1774 25.8895 101.223C26.0538 102.328 26.651 102.978 27.6888 103.277C28.5548 103.53 29.4358 103.68 30.3317 103.754C32.8551 103.978 35.3935 103.934 37.9244 103.986C38.0289 103.986 38.1334 103.978 38.2379 103.986C39.5892 104.016 40.4777 103.359 41.0152 102.157C41.6423 100.753 42.0081 99.2674 42.3292 97.7668C42.8144 95.4972 43.2997 93.2276 43.5536 90.9207C43.5984 90.525 43.6357 90.1293 43.6357 89.7411C43.6506 87.9643 42.8891 86.8071 41.2541 86.0978C40.2537 85.6648 39.1935 85.4707 38.1334 85.2467C37.0957 85.0302 36.043 84.9555 34.9978 84.8137C34.5722 84.754 34.4528 84.9332 34.3706 85.299C34.2661 85.8141 34.1243 86.3218 33.9675 86.8295C33.7585 87.4864 33.4225 88.0837 32.9596 88.6063C32.3101 89.3529 31.5113 89.8158 30.5034 89.8979C29.5702 89.98 28.6519 89.9054 27.7709 89.6217C26.9497 89.3529 26.2553 88.8825 25.8447 88.0837C25.2773 86.9862 25.5088 85.8066 26.4569 85.0153C27.0318 84.5375 27.6962 84.2164 28.398 83.985C29.8091 83.5221 31.2425 83.1936 32.7356 83.2011C33.0716 83.2011 33.2732 83.1339 33.3329 82.7531C33.6017 80.9837 33.848 79.2069 33.9824 77.4151C33.9899 77.3106 33.975 77.2061 33.96 77.0791C33.6166 77.012 33.3404 77.1911 33.0492 77.2807C30.9588 77.9377 28.846 78.4752 26.6436 78.647C24.5979 78.8037 22.5896 78.5872 20.5814 78.2587C17.6249 77.766 14.7879 76.9149 12.0928 75.5785C9.7709 74.4288 7.77007 72.861 5.97082 71.0095C4.11184 69.0982 2.41711 67.0377 0.894089 64.8502C0.610389 64.4396 0.32669 64.0215 0.169908 63.5362C-0.113791 62.6702 0.274429 62.0431 1.18525 61.9833C5.00773 61.7519 8.83021 61.6399 12.6452 62.058C15.4374 62.3641 18.155 62.9016 20.768 63.9916C24.9115 65.7237 28.2562 68.374 30.6303 72.204C30.6975 72.316 30.7796 72.4205 30.8393 72.54C31.0334 72.9282 31.3022 73.0476 31.7427 72.9356C32.3549 72.7863 32.982 72.6743 33.6091 72.5922C34.0422 72.54 34.1765 72.3384 34.1616 71.9128C34.0944 70.3375 33.7585 68.8369 33.0044 67.4334C32.2056 65.9626 31.1529 64.6785 30.0928 63.4018C27.8008 60.632 25.7551 57.698 23.8962 54.6221C21.7908 51.1281 20.5291 47.3803 20.0438 43.3338C19.7228 40.6835 19.454 38.0406 19.4391 35.3678C19.4391 35.1065 19.4167 34.8378 19.5063 34.5839C19.7079 34.0165 20.2454 33.8 20.7755 34.0837C20.9098 34.1584 21.0368 34.2629 21.1562 34.3599C24.9414 37.5478 27.7858 41.4151 29.6224 46.0215C30.6975 48.7092 31.347 51.4939 31.7726 54.3458C31.8174 54.6594 31.8323 54.973 32.0189 55.3388C32.2578 54.301 32.4669 53.3305 32.7058 52.3674C34.0123 47.1563 36.2072 42.3782 39.6863 38.2347C41.3512 36.2563 43.3072 34.6287 45.5619 33.3595C45.6962 33.2849 45.8381 33.2028 45.9799 33.1356C46.719 32.8071 47.2864 33.0236 47.5552 33.7851C47.8091 34.4869 47.8762 35.226 47.9882 35.9502C48.6975 40.6984 48.033 45.2525 46.0023 49.6051C45.0019 51.7552 43.6506 53.659 42.0007 55.3612C40.8659 56.5408 39.649 57.6308 38.4395 58.7357C37.3346 59.7511 36.2147 60.7589 35.2815 61.9535C35.0874 62.1998 34.9231 62.4761 34.729 62.7299C34.5498 62.9763 34.5648 63.1853 34.729 63.4466C35.4607 64.6038 36.1699 65.776 36.8941 66.9481C36.9463 67.0302 36.9837 67.1422 37.1405 67.1646C37.357 67.0825 37.4242 66.8361 37.5436 66.642C39.6788 63.1629 42.4113 60.2214 45.5768 57.6606C48.8692 54.9954 52.6693 53.4425 56.7904 52.6287C59.3512 52.121 61.9492 51.8523 64.5399 51.5387C66.3242 51.3222 68.0861 51.0161 69.848 50.6876C70.0272 50.6503 70.2139 50.598 70.393 50.598C71.162 50.598 71.5353 51.2251 71.162 51.8971C71.0202 52.1509 70.8335 52.3749 70.6618 52.6063C69.9451 53.5843 69.303 54.6221 68.6983 55.6673C64.9505 62.155 59.4557 66.5225 52.4677 69.1057C47.9061 70.793 43.1952 71.9352 38.4768 73.0551C37.7079 73.2343 36.9314 73.3985 36.1624 73.5777C35.722 73.6822 35.4457 74.272 35.6398 74.6752C35.7294 74.8693 35.9086 74.8021 36.0579 74.7722C36.5432 74.6528 37.0285 74.5184 37.5137 74.4139C38.4918 74.1974 39.4922 74.1152 40.4926 74.048C41.0749 74.0032 41.5005 74.2048 41.8066 74.7274C43.0757 76.9298 44.9198 78.5648 47.0401 79.9087C49.7875 81.6557 52.8261 82.574 56.0139 82.9995C59.5079 83.4624 63.0094 83.4997 66.5034 83.0294C66.6975 82.992 66.8692 83.0219 67.0633 82.8129ZM68.8178 52.4943C68.6087 52.3898 68.3997 52.4645 68.2056 52.5018C66.802 52.7631 65.391 52.9199 63.9799 53.1065C61.5013 53.435 59.0003 53.6739 56.5515 54.204C52.9754 54.9804 49.6606 56.3541 46.7713 58.6387C43.576 61.1621 40.8509 64.1111 38.7381 67.6051C38.5216 67.9634 38.3126 68.3367 38.0737 68.6801C37.4839 69.5387 36.7672 69.5312 36.2147 68.6577C36.0878 68.4562 35.9758 68.2471 35.8489 68.0456C35.0202 66.7017 34.2139 65.3355 33.3404 64.014C32.8999 63.3496 32.8999 62.812 33.3254 62.1401C34.1765 60.8112 35.2292 59.6839 36.364 58.6163C37.7079 57.3471 39.0965 56.1302 40.403 54.8311C45.4125 49.8365 47.3312 43.7668 46.5847 36.7938C46.51 36.1219 46.4876 35.435 46.2412 34.7855C45.9351 34.7855 45.7336 34.9796 45.5171 35.114C43.8447 36.1517 42.3665 37.4135 41.0749 38.8991C37.7228 42.7664 35.6174 47.2608 34.296 52.1658C33.6465 54.5623 33.2956 57.0186 32.885 59.4599C32.8402 59.7511 32.7804 60.0348 32.6461 60.2961C32.4893 60.6022 32.2354 60.7739 31.8771 60.744C31.556 60.7216 31.3395 60.535 31.235 60.2363C31.1828 60.087 31.1454 59.9302 31.1156 59.7809C30.9588 58.8477 30.7871 57.9145 30.6452 56.9738C30.2943 54.6519 29.9957 52.3226 29.376 50.053C27.965 44.9091 25.5237 40.3699 21.522 36.7565C21.3802 36.6295 21.2831 36.3832 20.992 36.4802C20.992 36.8461 20.977 37.2119 20.992 37.5777C21.1114 40.1086 21.4175 42.6246 21.8431 45.1181C22.2537 47.5296 23.0003 49.8216 24.1649 51.9792C25.3669 54.2115 26.6884 56.3691 28.1517 58.4371C29.6373 60.5275 31.3171 62.4537 32.87 64.4844C34.1691 66.1791 35.177 68.0157 35.4905 70.1658C35.5577 70.6063 35.5801 71.0543 35.6324 71.5022C35.707 72.1219 35.7145 72.1293 36.2968 72.0024C36.8866 71.8755 37.4764 71.7337 38.0662 71.5918C42.7846 70.4719 47.503 69.3371 52.0571 67.6424C57.313 65.6789 61.7925 62.6403 65.2417 58.1683C66.578 56.4288 67.6232 54.4952 68.7879 52.6436C68.8327 52.6138 68.8103 52.5541 68.8178 52.4943ZM1.90944 63.4018C1.95423 63.7751 2.12594 63.9468 2.26033 64.1335C3.65643 66.1194 5.20931 67.9858 6.87418 69.7477C9.27069 72.2861 12.1002 74.1451 15.3852 75.3321C17.6548 76.1534 19.9841 76.6685 22.3657 76.9746C24.5457 77.2583 26.7257 77.2509 28.8982 76.8104C30.4511 76.4968 31.9592 76.0339 33.4598 75.5487C34.1392 75.3322 34.1392 75.3322 34.1541 74.6229C34.1541 74.4288 34.2363 74.2048 34.0347 74.0331C33.415 74.1376 32.7954 74.2421 32.1757 74.3616C30.6154 74.6453 30.3914 74.5482 29.5179 73.1969C29.4208 73.0402 29.3238 72.8834 29.2193 72.7341C28.3458 71.4425 27.4051 70.2106 26.2479 69.1505C23.6498 66.754 20.5739 65.2459 17.1994 64.3425C14.2578 63.5586 11.2267 63.3496 8.19562 63.2525C6.11267 63.1779 4.03718 63.357 1.90944 63.4018ZM29.8464 88.3898C31.0932 88.5391 31.8621 87.8373 32.3848 86.7548C32.6013 86.2994 32.7356 85.8141 32.8402 85.3288C32.9671 84.7465 32.9148 84.6793 32.3176 84.7017C30.8543 84.7614 29.4582 85.1049 28.1218 85.7021C27.9053 85.7992 27.7037 85.9261 27.5171 86.0679C26.9198 86.5308 26.8825 87.158 27.4125 87.6955C27.6813 87.9643 28.0098 88.121 28.3682 88.2256C28.8385 88.3525 29.3088 88.4122 29.8464 88.3898Z" fill="#303030"/>
</svg>
