<?xml version="1.0" encoding="UTF-8"?>
<svg version="1.1" xmlns="http://www.w3.org/2000/svg" width="1024" height="1024">
<path d="M0 0 C337.92 0 675.84 0 1024 0 C1024 337.92 1024 675.84 1024 1024 C686.08 1024 348.16 1024 0 1024 C0 686.08 0 348.16 0 0 Z " fill="#C0B8B4" transform="translate(0,0)"/>
<path d="M0 0 C0.91652344 0.804375 1.83304688 1.60875 2.77734375 2.4375 C16.35506548 14.62507631 29.97908039 27.41744173 41 42 C41.77859375 42.97324219 42.5571875 43.94648438 43.359375 44.94921875 C78.07581669 88.50442574 78.07581669 88.50442574 77.1875 109.75 C75.7139263 116.94371887 71.88955863 123.1887721 65.75 127.25 C45.29891886 138.03439581 20.3561478 142.21981298 -2.1875 146.3125 C-3.19963058 146.4971582 -3.19963058 146.4971582 -4.23220825 146.68554688 C-19.30695937 149.41105046 -34.35093109 151.35448987 -49.66601562 151.91210938 C-51.23543061 151.97120868 -52.80449515 152.04039029 -54.37304688 152.11914062 C-65.22394993 152.64175555 -74.26370594 151.64126998 -84.55859375 148.09375 C-88.03351113 146.79807261 -88.03351113 146.79807261 -92 147 C-91.92912957 147.89120733 -91.85825914 148.78241467 -91.78524113 149.70062828 C-90.65323539 165.64743759 -90.86411423 181.63254082 -90.88393438 197.60920048 C-90.88829515 202.02610324 -90.8867885 206.44300475 -90.8860321 210.85990906 C-90.8855104 218.49289936 -90.88862004 226.12588104 -90.89426994 233.75886917 C-90.90243317 244.79458314 -90.90500508 255.83029298 -90.90625793 266.86600964 C-90.90844091 284.77525878 -90.91508046 302.68450334 -90.92456055 320.59375 C-90.93375423 337.980143 -90.94082548 355.36653475 -90.94506836 372.75292969 C-90.94533108 373.82650607 -90.94559381 374.90008245 -90.94586449 376.00619145 C-90.94716963 381.39256974 -90.94843331 386.77894805 -90.94967639 392.16532636 C-90.9600255 436.77688741 -90.97762319 481.38844347 -91 526 C-89.97841293 526.06335037 -88.95682587 526.12670074 -87.90428162 526.19197083 C-86.54612537 526.27866789 -85.18797654 526.3654813 -83.82983398 526.45239258 C-83.15862267 526.49370552 -82.48741135 526.53501846 -81.79586029 526.57758331 C-76.45723331 526.92280278 -71.29529358 527.59767868 -66.0625 528.6875 C-64.80046753 528.94805176 -64.80046753 528.94805176 -63.51293945 529.21386719 C-35.20292083 535.38904184 -3.34079896 553.60672485 13 578 C21.14872882 592.13667113 24.53331011 607.81109789 23 624 C21.63366337 627.68316832 21.63366337 627.68316832 19 629 C13.90998769 629.42831806 9.03231826 629.09891302 4.046875 628.02734375 C-2.72429043 626.74825096 -9.4363837 626.54303371 -16.3125 626.375 C-18.28839111 626.32134277 -18.28839111 626.32134277 -20.30419922 626.26660156 C-24.20252898 626.16444333 -28.10121408 626.0828767 -32 626 C-33.05912598 625.97131836 -34.11825195 625.94263672 -35.20947266 625.91308594 C-56.1169849 624.93465496 -56.1169849 624.93465496 -76 630 C-78.8017454 630.10027299 -81.57352069 630.13875522 -84.375 630.125 C-85.12394531 630.12886719 -85.87289062 630.13273438 -86.64453125 630.13671875 C-90.77914144 630.12974639 -94.825215 629.93248986 -98.93701172 629.5 C-108.61996331 628.67562704 -118.33683184 628.8563412 -128.046875 628.8671875 C-130.1885784 628.86651233 -132.33028172 628.86554054 -134.47198486 628.86428833 C-138.9468255 628.8628201 -143.42164608 628.86493683 -147.89648438 628.86962891 C-153.58927391 628.87531175 -159.28201614 628.87205074 -164.97480392 628.86605644 C-169.39500271 628.86241527 -173.81519057 628.86360586 -178.23538971 628.86618423 C-180.33222713 628.86684442 -182.42906559 628.8660574 -184.52590179 628.86370468 C-187.47660926 628.86112072 -190.42722934 628.86392769 -193.37792969 628.87060547 C-194.29581646 628.87211042 -195.21370323 628.87361538 -196.15940475 628.87516594 C-203.18097427 628.91907726 -210.11340745 629.37698407 -217.09844971 630.07888794 C-218.5347171 630.03983841 -218.5347171 630.03983841 -220 630 C-222.84690979 625.72963532 -222.34243549 622.02525839 -222.3125 617 C-222.30512817 615.57022827 -222.30512817 615.57022827 -222.29760742 614.11157227 C-222.18431047 607.31085007 -221.49915924 601.36882515 -219 595 C-218.6596875 594.0203125 -218.319375 593.040625 -217.96875 592.03125 C-215.16595257 584.53187309 -211.23782687 578.99380189 -206 573 C-205.236875 571.989375 -204.47375 570.97875 -203.6875 569.9375 C-199.55367778 565.41913618 -194.85817346 561.70806394 -190 558 C-189.09459473 557.30680664 -189.09459473 557.30680664 -188.17089844 556.59960938 C-171.6888025 544.13163402 -153.95960217 534.53129542 -134 529 C-133.09507812 528.73574219 -132.19015625 528.47148438 -131.2578125 528.19921875 C-123.15202274 526.19324048 -115.56729 527 -107 527 C-107 400.94 -107 274.88 -107 145 C-110.63 144.67 -114.26 144.34 -118 144 C-118 145.65 -118 147.3 -118 149 C-121.93518594 152.93518594 -128.04076939 152.15435894 -133.32421875 152.171875 C-141.9014789 152.15172 -150.30821938 151.29669708 -158.8125 150.25 C-160.34958029 150.06673179 -161.88669021 149.88371194 -163.42382812 149.70092773 C-246.66070081 139.68903022 -246.66070081 139.68903022 -263 127 C-263.87785156 126.40251953 -263.87785156 126.40251953 -264.7734375 125.79296875 C-269.77491965 122.1455464 -272.32108118 117.59358754 -273.453125 111.6015625 C-274.98793768 88.37007972 -253.34516692 60.59167419 -239 44 C-237.70133845 42.38058469 -236.40966721 40.75553915 -235.125 39.125 C-226.51147239 28.34957909 -217.47423311 18.02316936 -208 8 C-207.25234375 7.19820312 -206.5046875 6.39640625 -205.734375 5.5703125 C-196.68621703 -3.84647413 -185.90818805 -11.86104253 -175 -19 C-174.14921875 -19.56074219 -173.2984375 -20.12148437 -172.421875 -20.69921875 C-115.71136858 -55.94527372 -47.77445633 -42.18172093 0 0 Z " fill="#192121" transform="translate(606,155)"/>
<path d="M0 0 C1.59328125 0.85078125 1.59328125 0.85078125 3.21875 1.71875 C13.98287415 7.72399821 23.45747789 15.34937364 32.48828125 23.69921875 C34.53152557 25.57086868 36.60372774 27.38416488 38.703125 29.19140625 C43.47198804 33.35448727 47.96450547 37.77296888 52.4375 42.25 C53.27643799 43.08901855 54.11537598 43.92803711 54.97973633 44.79248047 C60.02804951 49.88754185 64.77584232 55.0229462 69.1796875 60.6875 C70.95947745 62.94852071 72.84740547 65.02465605 74.8125 67.125 C78.68077667 71.42308519 82.02990428 76.04223524 85.375 80.75 C86.16161011 81.85045654 86.16161011 81.85045654 86.96411133 82.97314453 C89.46009094 86.53534019 91.6356442 89.82474248 93 94 C86.72688242 92.68396135 80.67489693 91.04158873 74.5625 89.125 C49.58371789 81.51633454 23.55185611 77.34348045 -2.5390625 76.44921875 C-3.74817291 76.40737961 -4.95728333 76.36554047 -6.20303345 76.32243347 C-21.25840138 75.84423319 -36.31331779 75.80164846 -51.375 75.8125 C-52.11445107 75.81261959 -52.85390213 75.81273918 -53.6157608 75.8128624 C-107.19602299 75.48454644 -107.19602299 75.48454644 -159.80371094 84.43652344 C-164.21774216 85.56898054 -168.67616057 86.51529746 -173.125 87.5 C-179.4034008 88.89627341 -185.59014581 90.39801769 -191.75 92.25 C-197.16779494 93.86881102 -202.35503257 94.73986325 -208 95 C-200.52706877 79.33864412 -200.52706877 79.33864412 -196 74 C-194.515 73.505 -194.515 73.505 -193 73 C-191.71312084 70.84443489 -191.71312084 70.84443489 -190.625 68.25 C-188.60763973 63.99112832 -186.53749216 61.17467245 -183 58 C-182.34 57.175 -181.68 56.35 -181 55.5 C-178.83551517 52.79439396 -176.44909896 50.44909896 -174 48 C-173.09538109 46.90301959 -172.19945919 45.79880769 -171.3125 44.6875 C-170.1678125 43.3571875 -170.1678125 43.3571875 -169 42 C-168.34 42 -167.68 42 -167 42 C-166.73968994 41.41516846 -166.47937988 40.83033691 -166.21118164 40.2277832 C-164.91962002 37.85215333 -163.5260347 36.26754145 -161.62109375 34.35546875 C-160.95150635 33.68177246 -160.28191895 33.00807617 -159.59204102 32.31396484 C-158.88104248 31.61223145 -158.17004395 30.91049805 -157.4375 30.1875 C-156.71167725 29.46771973 -155.98585449 28.74793945 -155.23803711 28.00634766 C-150.42104991 23.27823476 -145.57575217 18.8271435 -140 15 C-139.00419922 14.29617187 -139.00419922 14.29617187 -137.98828125 13.578125 C-135.69053078 11.9981561 -133.3525903 10.49710292 -131 9 C-130.02546875 8.35546875 -129.0509375 7.7109375 -128.046875 7.046875 C-86.62519754 -19.62330108 -43.53600834 -23.47801724 0 0 Z " fill="#C7C1C0" transform="translate(564,147)"/>
<path d="M0 0 C1.16958252 0.00491455 2.33916504 0.0098291 3.54418945 0.01489258 C36.38611286 0.45248568 68.50645498 11.57152052 91.9375 35.3125 C91.9375 35.6425 91.9375 35.9725 91.9375 36.3125 C91.11126853 36.31065641 90.28503706 36.30881283 89.43376827 36.30691338 C69.27485546 36.26263096 49.1159511 36.22959331 28.95699978 36.20887566 C19.20805038 36.19858895 9.45913356 36.18457876 -0.28979492 36.16162109 C-8.79279715 36.1416071 -17.29577576 36.12876466 -25.79880089 36.12432301 C-30.29576826 36.12172912 -34.79266811 36.11568743 -39.28961372 36.10103989 C-43.53391712 36.08732902 -47.77812605 36.08330424 -52.02244949 36.08628464 C-53.56904682 36.08574045 -55.11564775 36.08184425 -56.66222572 36.07408905 C-73.27055422 35.24115826 -73.27055422 35.24115826 -88.48177433 39.95223808 C-90.62693418 43.1552854 -90.35249553 45.54255811 -90.0625 49.3125 C-88.58237317 49.31331715 -88.58237317 49.31331715 -87.07234478 49.31415081 C-63.08708832 49.32853204 -39.10201365 49.37148965 -15.1168623 49.44459057 C-3.51790949 49.47927648 8.08092403 49.50460081 19.67993164 49.50805664 C29.78702156 49.51109153 39.89389923 49.53151787 50.00090712 49.57302457 C55.35492196 49.59439947 60.70863471 49.60693216 66.06269264 49.59865379 C71.09840373 49.59114204 76.13350129 49.60681881 81.16909981 49.64056015 C83.02064963 49.64882825 84.87226008 49.64850266 86.72380447 49.63909721 C89.2458261 49.62755064 91.76581151 49.64647519 94.28767395 49.67326355 C95.0259975 49.66259029 95.76432105 49.65191703 96.52501804 49.64092034 C98.56982136 49.68164349 98.56982136 49.68164349 101.9375 50.3125 C104.56310937 53.53627994 105.42187246 56.56849494 106.125 60.625 C106.28355469 61.50800781 106.44210937 62.39101563 106.60546875 63.30078125 C106.71503906 63.96464844 106.82460938 64.62851562 106.9375 65.3125 C85.60546904 65.41579127 64.28694395 65.40949723 42.96014404 64.88369751 C0.39367335 63.83780413 -42.1853201 64.00305855 -84.75048828 65.04443359 C-86.37403481 65.08163261 -86.37403481 65.08163261 -88.03038025 65.11958313 C-90.04446105 65.16615164 -92.05844644 65.21713902 -94.07228088 65.27336121 C-94.95552536 65.29344742 -95.83876984 65.31353363 -96.7487793 65.33422852 C-97.51441696 65.35421402 -98.28005463 65.37419952 -99.06889343 65.39479065 C-101.0625 65.3125 -101.0625 65.3125 -104.0625 64.3125 C-102.37829274 54.81969545 -99.37478652 46.87480841 -92.0625 40.3125 C-91.010625 38.95125 -91.010625 38.95125 -89.9375 37.5625 C-88.0625 35.3125 -88.0625 35.3125 -85.0625 34.3125 C-84.2375 33.301875 -83.4125 32.29125 -82.5625 31.25 C-81.7375 30.280625 -80.9125 29.31125 -80.0625 28.3125 C-79.0725 28.3125 -78.0825 28.3125 -77.0625 28.3125 C-76.82144531 27.71695313 -76.58039063 27.12140625 -76.33203125 26.5078125 C-74.80971124 23.87536991 -73.29776009 22.82320479 -70.75 21.1875 C-69.99074219 20.68992187 -69.23148437 20.19234375 -68.44921875 19.6796875 C-66.0625 18.3125 -66.0625 18.3125 -63.70703125 17.3828125 C-60.93903348 16.2625298 -58.46271216 14.82275345 -55.88769531 13.3203125 C-38.88435701 3.93163132 -19.23836789 -0.09717059 0 0 Z " fill="#D5D2D2" transform="translate(505.0625,697.6875)"/>
<path d="M0 0 C21.12819729 -0.59237936 41.42141481 2.38128085 62 7 C62.92683594 7.2052832 63.85367188 7.41056641 64.80859375 7.62207031 C76.04588592 10.14597592 86.40937325 13.48360169 97 18 C98.60040914 18.57310342 100.20388025 19.13786427 101.8125 19.6875 C105 21 105 21 107 24 C103.36129666 28.10307119 99.9285626 30.24056836 94.8125 32 C94.15060669 32.23200607 93.48871338 32.46401215 92.8067627 32.70304871 C78.77144017 37.5335936 64.65700181 40.90609504 50 43.1875 C48.8097522 43.37801941 48.8097522 43.37801941 47.59545898 43.5723877 C35.18651029 45.55243346 22.86359643 46.86603409 10.31640625 47.6328125 C4.98699539 47.96362285 -0.16194288 48.70523045 -5.421875 49.625 C-9.31446774 50.19119531 -13.0740239 50.13308394 -17 50 C-15.9708099 46.60367268 -14.55381973 44.37956151 -12.1875 41.8125 C-9.03037284 38.29345826 -7.10408581 34.55489272 -5.09765625 30.296875 C-4 28 -4 28 -2.25 25.125 C-0.19314011 21.62833818 0.12475589 18.4638714 0.09765625 14.453125 C0.09282227 13.18662109 0.09282227 13.18662109 0.08789062 11.89453125 C0.07951172 11.02183594 0.07113281 10.14914063 0.0625 9.25 C0.05798828 8.36183594 0.05347656 7.47367188 0.04882812 6.55859375 C0.037074 4.37232671 0.02064249 2.18619821 0 0 Z " fill="#CEC9C7" transform="translate(557,241)"/>
<path d="M0 0 C0.01417969 1.29292969 0.02835937 2.58585938 0.04296875 3.91796875 C0.43389778 21.32857207 4.45590052 34.46521729 17 47.1875 C17.66 47.785625 18.32 48.38375 19 49 C9.98098157 49.24953806 1.18933069 48.28823604 -7.75 47.25 C-8.54000397 47.15941315 -9.33000793 47.06882629 -10.14395142 46.97549438 C-15.00609638 46.41766737 -19.86659897 45.84689652 -24.72637939 45.26885986 C-26.84171287 45.01871775 -28.95755832 44.77369081 -31.07373047 44.53076172 C-45.70692713 42.83167768 -60.14426457 40.56019354 -74.5625 37.5625 C-75.24637787 37.42315033 -75.93025574 37.28380066 -76.63485718 37.14022827 C-101.34086017 32.05648081 -101.34086017 32.05648081 -106 26 C-105.87890625 23.93359375 -105.87890625 23.93359375 -105 22 C-79.03683716 5.57432555 -30.60827808 -2.18053696 0 0 Z " fill="#CAC6C4" transform="translate(459,241)"/>
<path d="M0 0 C1.13055817 -0.0033284 2.26111633 -0.0066568 3.42593384 -0.01008606 C5.7974609 -0.01511782 8.16899495 -0.01749555 10.54052734 -0.01733398 C14.17426988 -0.01953744 17.80771661 -0.03777895 21.44140625 -0.05664062 C23.75260313 -0.05957191 26.06380145 -0.06155848 28.375 -0.0625 C29.46042084 -0.06968552 30.54584167 -0.07687103 31.66415405 -0.08427429 C33.17690414 -0.07965935 33.17690414 -0.07965935 34.72021484 -0.07495117 C36.04730972 -0.0770887 36.04730972 -0.0770887 37.4012146 -0.07926941 C39.95392064 0.18503819 41.58871467 0.88057278 43.7890625 2.16796875 C44.24721466 14.89441774 43.3140833 24.59034517 35.7890625 35.16796875 C35.1909375 36.07546875 34.5928125 36.98296875 33.9765625 37.91796875 C27.65776681 44.41730146 18.6086767 46.26597075 9.8515625 46.48046875 C-0.45246483 46.26285466 -5.4584896 43.67796522 -12.9453125 36.55859375 C-19.56045454 29.57847835 -23.3142001 21.11894149 -23.4609375 11.41796875 C-23.33744819 7.94174459 -22.91074047 4.57950821 -22.2109375 1.16796875 C-14.79071725 0.2696936 -7.47023328 0.0077455 0 0 Z " fill="#DAD7D6" transform="translate(498.2109375,238.83203125)"/>
<path d="M0 0 C4.22631736 1.05657934 6.66348528 3.08192313 9 6.75 C9.375 9.75 9.375 9.75 8 12.75 C4.97543525 15.61753317 1.69483217 17.99778167 -2.12109375 19.69140625 C-4.41122845 20.98169004 -5.03528232 22.13044292 -6.25 24.4375 C-9.04511485 29.14189331 -12.40613457 32.74492202 -17 35.75 C-21.0992011 36.67022882 -23.33008896 35.71781635 -26.875 33.75 C-27.90625 33.09 -28.9375 32.43 -30 31.75 C-29.59733973 26.78995757 -27.04777809 24.07776505 -23.75 20.625 C-23.27175781 20.10035156 -22.79351562 19.57570312 -22.30078125 19.03515625 C-19.46332648 15.99777241 -16.72495312 13.61247656 -13 11.75 C-12.34 11.75 -11.68 11.75 -11 11.75 C-10.690625 10.698125 -10.690625 10.698125 -10.375 9.625 C-8.09649206 4.86084703 -5.23714496 1.30928624 0 0 Z " fill="#141D29" transform="translate(442,165.25)"/>
<path d="M0 0 C25.3628355 1.62180116 50.69396308 1.62895873 76.08053589 0.50308228 C88.65936413 -0.03482178 101.23737921 0.05141972 113.82516479 0.14468384 C113.82516479 0.47468384 113.82516479 0.80468384 113.82516479 1.14468384 C113.22977905 1.23032593 112.63439331 1.31596802 112.02096558 1.40420532 C109.33016851 1.79329637 106.64017247 2.18767384 103.95016479 2.58218384 C103.01301636 2.71689087 102.07586792 2.8515979 101.11032104 2.99038696 C100.21442261 3.12251587 99.31852417 3.25464478 98.39547729 3.39077759 C97.5680603 3.51122437 96.74064331 3.63167114 95.88815308 3.75576782 C93.77188712 4.05725056 93.77188712 4.05725056 91.82516479 5.14468384 C89.0234194 5.24495683 86.2516441 5.28343906 83.45016479 5.26968384 C82.32674683 5.27548462 82.32674683 5.27548462 81.18063354 5.28140259 C77.06578685 5.27446355 73.04207968 5.07894853 68.95065308 4.64248657 C58.91782495 3.78823091 48.83871637 4.02210035 38.77828979 4.04702759 C36.55341626 4.04889563 34.32854231 4.05031771 32.10366821 4.05131531 C26.28409667 4.05511009 20.46455059 4.06491402 14.64498901 4.07601929 C8.69203028 4.08629915 2.73906737 4.09082694 -3.21389771 4.09585571 C-14.86755465 4.10653936 -26.5211928 4.12357876 -38.17483521 4.14468384 C-37.84483521 3.15468384 -37.51483521 2.16468384 -37.17483521 1.14468384 C-35.59474156 0.79631674 -34.01041256 0.46717415 -32.42483521 0.14468384 C-31.54311646 -0.04094116 -30.66139771 -0.22656616 -29.75296021 -0.41781616 C-19.87735667 -1.62531354 -9.89113482 -0.64583462 0 0 Z " fill="#525450" transform="translate(438.1748352050781,779.8553161621094)"/>
<path d="M0 0 C3.27643757 1.63821879 5.22368731 2.98741823 7.4375 5.875 C8.25918802 8.97915476 7.95656022 10.9390073 7 14 C3.4277094 17.47828296 0.66409554 18.84300985 -4.3125 19.3125 C-8.68119458 18.94227165 -10.63102201 17.74219139 -14 15 C-16.34168764 11.48746854 -16.49623677 10.13530644 -16 6 C-11.65516175 -0.51725737 -7.46432683 -0.83572984 0 0 Z " fill="#141918" transform="translate(351,767)"/>
<path d="M0 0 C2.96945142 2.18763933 4.17130958 4.10465437 5.3671875 7.56640625 C5.11006023 12.4518243 3.63551143 13.75345032 0.1796875 17.12890625 C-3.50197448 18.96973724 -7.79277056 18.49619781 -11.8203125 18.12890625 C-16.33347039 16.10259046 -16.33347039 16.10259046 -17.8203125 13.12890625 C-18.23344343 10.07173736 -18.31413407 7.17866147 -17.8203125 4.12890625 C-13.31540502 -0.741264 -6.24651787 -2.98921349 0 0 Z " fill="#121B1C" transform="translate(666.8203125,765.87109375)"/>
<path d="M0 0 C2.73666211 4.05780934 3.46378604 7.16686123 3 12 C0.1384569 16.79401376 -3.38114982 20.34677975 -8.5625 22.4375 C-12.72760072 21.90739627 -14.75652375 20.71540681 -17.73046875 17.80859375 C-19 16 -19 16 -19.3125 12.5625 C-17.21417956 6.86705881 -13.9850807 2.67060778 -8.4375 0 C-3.21641297 -1.51886168 -3.21641297 -1.51886168 0 0 Z " fill="#0E151A" transform="translate(414,199)"/>
<path d="M0 0 C4.22631736 1.05657934 6.66348528 3.08192313 9 6.75 C9.375 9.75 9.375 9.75 8 12.75 C3.94314385 16.75912843 -0.44098658 19.36024664 -6 20.75 C-6 20.09 -6 19.43 -6 18.75 C-6.5775 18.646875 -7.155 18.54375 -7.75 18.4375 C-10.32049158 17.65207202 -11.93657284 16.44495803 -14 14.75 C-13.67 13.76 -13.34 12.77 -13 11.75 C-12.34 11.75 -11.68 11.75 -11 11.75 C-10.79375 11.04875 -10.5875 10.3475 -10.375 9.625 C-8.09649206 4.86084703 -5.23714496 1.30928624 0 0 Z " fill="#132327" transform="translate(442,165.25)"/>
<path d="M0 0 C0 0.33 0 0.66 0 1 C-0.59538574 1.08564209 -1.19077148 1.17128418 -1.80419922 1.25952148 C-4.49499629 1.64861253 -7.18499232 2.04299001 -9.875 2.4375 C-10.81214844 2.57220703 -11.74929688 2.70691406 -12.71484375 2.84570312 C-13.61074219 2.97783203 -14.50664063 3.10996094 -15.4296875 3.24609375 C-16.25710449 3.36654053 -17.08452148 3.4869873 -17.93701172 3.61108398 C-20.05327767 3.91256672 -20.05327767 3.91256672 -22 5 C-24.80205537 5.10028409 -27.57323527 5.14120174 -30.375 5.125 C-31.18267822 5.12234131 -31.99035645 5.11968262 -32.82250977 5.11694336 C-49.03121499 4.989595 -49.03121499 4.989595 -55 3 C-55 2.34 -55 1.68 -55 1 C-36.64963227 0.17189891 -18.36691646 -0.13608225 0 0 Z " fill="#2F332D" transform="translate(552,780)"/>
<path d="M0 0 C2 2 2 2 2 6 C3.2065625 6.185625 3.2065625 6.185625 4.4375 6.375 C5.283125 6.58125 6.12875 6.7875 7 7 C7.33 7.66 7.66 8.32 8 9 C-0.7831454 12.38192141 -8.53748565 15 -18 15 C-16.35 11.37 -14.7 7.74 -13 4 C-11.02 4 -9.04 4 -7 4 C-6.67 5.65 -6.34 7.3 -6 9 C-4.68 8.67 -3.36 8.34 -2 8 C-2.061875 6.8553125 -2.061875 6.8553125 -2.125 5.6875 C-2 3 -2 3 0 0 Z " fill="#D5DBE8" transform="translate(374,227)"/>
<path d="M0 0 C0.66 0.33 1.32 0.66 2 1 C1.42655063 3.86724686 1.1385485 4.8614515 -1 7 C-1.99 7 -2.98 7 -4 7 C-5.08954383 9.54226893 -5.96797705 11.74381641 -6.3125 14.5 C-7.28954761 18.0529004 -9.21113004 19.6759417 -12 22 C-12.99 22 -13.98 22 -15 22 C-14.34 23.65 -13.68 25.3 -13 27 C-14.32 27.33 -15.64 27.66 -17 28 C-17 27.34 -17 26.68 -17 26 C-18.99983534 26.79117904 -18.99983534 26.79117904 -21 28 C-21.33 28.99 -21.66 29.98 -22 31 C-22.66 31 -23.32 31 -24 31 C-22.125 26.25 -22.125 26.25 -21 24 C-20.01 23.67 -19.02 23.34 -18 23 C-16.71312084 20.84443489 -16.71312084 20.84443489 -15.625 18.25 C-13.60763973 13.99112832 -11.53749216 11.17467245 -8 8 C-7.319375 7.13375 -6.63875 6.2675 -5.9375 5.375 C-4.11393401 3.13966105 -2.37504647 1.61163867 0 0 Z " fill="#DFE3F2" transform="translate(389,197)"/>
<path d="M0 0 C0 0.33 0 0.66 0 1 C-0.56280167 1.01030746 -1.12560333 1.02061493 -1.70545959 1.03123474 C-7.69425163 1.1414907 -13.68295661 1.25584035 -19.67163086 1.37231445 C-21.89101293 1.41497951 -24.11041373 1.45668395 -26.32983398 1.49731445 C-41.56603155 1.77709954 -56.77908284 2.2578995 -72 3 C-52.82719033 -7.20095121 -21.08299643 -0.80479255 0 0 Z " fill="#877E76" transform="translate(604,781)"/>
<path d="M0 0 C0.99 0.33 1.98 0.66 3 1 C1.71001845 3.84194866 0.36362413 5.87811943 -1.86328125 8.05859375 C-2.42080078 8.60966797 -2.97832031 9.16074219 -3.55273438 9.72851562 C-4.13345703 10.29248047 -4.71417969 10.85644531 -5.3125 11.4375 C-5.88162109 11.99759766 -6.45074219 12.55769531 -7.03710938 13.13476562 C-9.58905102 15.64568869 -12.15059883 18.14627128 -14.71875 20.640625 C-17.36993237 23.38260128 -19.48555328 26.31051273 -21.66796875 29.42578125 C-22.32732422 30.20501953 -22.32732422 30.20501953 -23 31 C-23.66 31 -24.32 31 -25 31 C-24.35915439 25.39260089 -21.19420735 21.62226998 -17 18 C-16.34 18 -15.68 18 -15 18 C-15 17.34 -15 16.68 -15 16 C-13.000181 14.10731416 -10.87936015 12.40114234 -8.75 10.65625 C-8.1725 10.1096875 -7.595 9.563125 -7 9 C-7 8.34 -7 7.68 -7 7 C-3.53846154 4 -3.53846154 4 -1 4 C-0.67 2.68 -0.34 1.36 0 0 Z " fill="#2A3F44" transform="translate(410,169)"/>
<path d="M0 0 C1 3 1 3 0.125 5.125 C-1 7 -1 7 -2 8 C-1.01 8.33 -0.02 8.66 1 9 C1 9.99 1 10.98 1 12 C-3.53701494 13.45184478 -7.18061476 14.23509196 -12 14 C-10.6957672 10.0873016 -9.21065261 7.62689759 -6 5 C-5.01 5 -4.02 5 -3 5 C-2.690625 4.360625 -2.38125 3.72125 -2.0625 3.0625 C-1 1 -1 1 0 0 Z " fill="#D8DAEA" transform="translate(431,721)"/>
<path d="M0 0 C1.47786304 0.00503337 2.95572777 0.00959298 4.43359375 0.01367188 C7.99743195 0.02451282 11.56120447 0.04167221 15.125 0.0625 C2.66475527 6.73870919 -17.32133453 2.74669946 -30.875 2.0625 C-30.875 1.7325 -30.875 1.4025 -30.875 1.0625 C-20.55228287 0.15719546 -10.35241297 -0.0623923 0 0 Z " fill="#0A120C" transform="translate(508.875,732.9375)"/>
<path d="M0 0 C0.33 0.66 0.66 1.32 1 2 C0.10539062 2.49628906 -0.78921875 2.99257812 -1.7109375 3.50390625 C-9.89107934 8.08410494 -17.77738305 12.86938478 -25.1484375 18.69921875 C-27 20 -27 20 -29 20 C-29 19.34 -29 18.68 -29 18 C-28.34 18 -27.68 18 -27 18 C-26.79375 17.443125 -26.5875 16.88625 -26.375 16.3125 C-23.86419997 12.08979087 -19.62999027 8.6976631 -15 7 C-13.68 7 -12.36 7 -11 7 C-11 6.34 -11 5.68 -11 5 C-7.54269479 2.55954927 -4.03321763 1.21934486 0 0 Z " fill="#CFCCC7" transform="translate(444,127)"/>
<path d="M0 0 C1.58206057 0.00667536 3.16410534 0.0186375 4.74609375 0.03515625 C5.55240234 0.03966797 6.35871094 0.04417969 7.18945312 0.04882812 C9.18753131 0.06065107 11.18557158 0.07858711 13.18359375 0.09765625 C13.18359375 0.42765625 13.18359375 0.75765625 13.18359375 1.09765625 C12.34054687 1.23042969 11.4975 1.36320313 10.62890625 1.5 C9.53320312 1.67660156 8.4375 1.85320313 7.30859375 2.03515625 C5.67277344 2.29619141 5.67277344 2.29619141 4.00390625 2.5625 C1.24537829 2.95316784 1.24537829 2.95316784 -0.81640625 4.09765625 C-3.61843941 4.19793954 -6.38966247 4.23857848 -9.19140625 4.22265625 C-9.99690918 4.22072266 -10.80241211 4.21878906 -11.63232422 4.21679688 C-18.06105087 4.17066689 -24.42397906 3.79956982 -30.81640625 3.09765625 C-30.81640625 2.76765625 -30.81640625 2.43765625 -30.81640625 2.09765625 C-30.03402588 2.0726001 -29.25164551 2.04754395 -28.44555664 2.02172852 C-24.92315676 1.90615837 -21.40105065 1.78325676 -17.87890625 1.66015625 C-16.64720703 1.62083984 -15.41550781 1.58152344 -14.14648438 1.54101562 C-12.39174805 1.47817383 -12.39174805 1.47817383 -10.6015625 1.4140625 C-9.5175415 1.37740479 -8.43352051 1.34074707 -7.31665039 1.30297852 C-3.79423343 1.01371451 -4.03501663 0.10325017 0 0 Z " fill="#5A5850" transform="translate(530.81640625,780.90234375)"/>
<path d="M0 0 C0.66 0 1.32 0 2 0 C2.33 2.97 2.66 5.94 3 9 C1.02 9.99 1.02 9.99 -1 11 C-3.26757564 12.28350327 -3.26757564 12.28350327 -5 14 C-5 15.32 -5 16.64 -5 18 C-5.66 18 -6.32 18 -7 18 C-6.81997112 10.92977473 -5.12910684 5.12910684 0 0 Z " fill="#D4DDF3" transform="translate(555,267)"/>
<path d="M0 0 C0.33 0.99 0.66 1.98 1 3 C0.21753906 3.75925781 -0.56492187 4.51851562 -1.37109375 5.30078125 C-2.39349196 6.30441986 -3.41561299 7.30834089 -4.4375 8.3125 C-4.95376953 8.81201172 -5.47003906 9.31152344 -6.00195312 9.82617188 C-8.40590176 12.19869635 -9.91656793 13.74970379 -11 17 C-12.33333333 17.33333333 -13.66666667 17.66666667 -15 18 C-15.33 18.99 -15.66 19.98 -16 21 C-16.72631836 19.25683594 -16.72631836 19.25683594 -17 17 C-15.55297852 14.98535156 -15.55297852 14.98535156 -13.37890625 12.890625 C-12.60869141 12.13652344 -11.83847656 11.38242188 -11.04492188 10.60546875 C-10.22572266 9.82816406 -9.40652344 9.05085937 -8.5625 8.25 C-7.74716797 7.45722656 -6.93183594 6.66445312 -6.09179688 5.84765625 C-4.07189608 3.88681688 -2.04127872 1.9385351 0 0 Z M-19 22 C-18.34 22.33 -17.68 22.66 -17 23 C-18.65 24.65 -20.3 26.3 -22 28 C-21.42655063 25.13275314 -21.1385485 24.1385485 -19 22 Z " fill="#202B29" transform="translate(407,154)"/>
<path d="M0 0 C-0.33 0.66 -0.66 1.32 -1 2 C-2.86174216 2.28889102 -4.72631185 2.57231083 -6.6015625 2.75390625 C-8.48764465 2.94742934 -10.36588418 3.21748699 -12.23828125 3.515625 C-16.3796469 4.04888496 -20.39347869 4.1837942 -24.5625 4.1875 C-25.29146484 4.19974609 -26.02042969 4.21199219 -26.77148438 4.22460938 C-31.24107188 4.23667847 -34.78778202 3.68355632 -39 2 C-34.78724337 0.80675753 -30.71811911 0.93228494 -26.375 1 C-20.54043015 1.05127755 -14.85813863 0.93629175 -9.05859375 0.22265625 C-6.02503087 -0.10545207 -3.04814514 -0.06626402 0 0 Z " fill="#AFA59C" transform="translate(547,783)"/>
<path d="M0 0 C1.32 0 2.64 0 4 0 C3.71125 0.556875 3.4225 1.11375 3.125 1.6875 C1.9586747 4.08494645 0.9660119 6.51596939 0 9 C0.721875 9.268125 1.44375 9.53625 2.1875 9.8125 C4.97590126 10.98982498 7.44095724 12.39145884 10 14 C9.34 15.98 8.68 17.96 8 20 C7.34 20 6.68 20 6 20 C5.67 20.66 5.34 21.32 5 22 C4.81824219 21.38511719 4.63648438 20.77023438 4.44921875 20.13671875 C4.19785156 19.32847656 3.94648438 18.52023438 3.6875 17.6875 C3.44386719 16.88699219 3.20023437 16.08648437 2.94921875 15.26171875 C1.94648433 12.87248736 0.82431415 11.78465514 -1 10 C-1.6875 6.8125 -1.6875 6.8125 -2 4 C-1.34 3.67 -0.68 3.34 0 3 C0 2.01 0 1.02 0 0 Z " fill="#C9CACD" transform="translate(412,188)"/>
<path d="M0 0 C2 2 2 2 2 6 C3.2065625 6.185625 3.2065625 6.185625 4.4375 6.375 C5.7059375 6.684375 5.7059375 6.684375 7 7 C7.33 7.66 7.66 8.32 8 9 C-0.261959 12.62870159 -0.261959 12.62870159 -5 11 C-5 10.34 -5 9.68 -5 9 C-4.01 8.67 -3.02 8.34 -2 8 C-2.04125 7.236875 -2.0825 6.47375 -2.125 5.6875 C-2 3 -2 3 0 0 Z " fill="#E6EDF3" transform="translate(374,227)"/>
<path d="M0 0 C-0.7115625 0.556875 -0.7115625 0.556875 -1.4375 1.125 C-3.52205802 3.62646962 -3.64621491 5.81593418 -4 9 C-4.66 9 -5.32 9 -6 9 C-6 9.99 -6 10.98 -6 12 C-7.65 12.33 -9.3 12.66 -11 13 C-10.34 12.67 -9.68 12.34 -9 12 C-9.268125 10.948125 -9.53625 9.89625 -9.8125 8.8125 C-10 5 -10 5 -7.875 2.0625 C-4.82477699 -0.12570346 -3.64336355 -0.52048051 0 0 Z " fill="#5A5153" transform="translate(424,735)"/>
<path d="M0 0 C2.09350689 3.4019487 2.17942163 6.05272412 2 10 C-0.97 10 -3.94 10 -7 10 C-5.6062718 5.56541027 -3.39417765 3.12621626 0 0 Z " fill="#CBC6BC" transform="translate(547,281)"/>
<path d="M0 0 C0.99 0.33 1.98 0.66 3 1 C2.50371094 1.4125 2.00742187 1.825 1.49609375 2.25 C-3.4811566 6.48113502 -7.82619038 10.9783853 -12 16 C-12.625 14.125 -12.625 14.125 -13 12 C-12.34 11.34 -11.68 10.68 -11 10 C-10.01 10 -9.02 10 -8 10 C-7.9175 9.236875 -7.835 8.47375 -7.75 7.6875 C-7 5 -7 5 -5.125 3.1875 C-3 2 -3 2 0 2 C0 1.34 0 0.68 0 0 Z " fill="#D2CDCA" transform="translate(409,716)"/>
<path d="M0 0 C2.97 0.33 5.94 0.66 9 1 C8.34 2.65 7.68 4.3 7 6 C4.36 6 1.72 6 -1 6 C-0.67 4.02 -0.34 2.04 0 0 Z " fill="#837879" transform="translate(488,299)"/>
<path d="M0 0 C0.66 0.33 1.32 0.66 2 1 C1.32453125 1.85722656 0.6490625 2.71445313 -0.046875 3.59765625 C-0.94815352 4.75241935 -1.8491818 5.90737778 -2.75 7.0625 C-3.41515625 7.90458008 -3.41515625 7.90458008 -4.09375 8.76367188 C-6.37671629 11.70131232 -8.37942036 14.58938243 -10.140625 17.87109375 C-12 21 -12 21 -15 22 C-14.41251924 17.9072174 -12.22838051 15.35017729 -9.75 12.125 C-9.34467041 11.59487305 -8.93934082 11.06474609 -8.52172852 10.51855469 C-5.76829056 6.93539647 -2.94834829 3.42388833 0 0 Z " fill="#111616" transform="translate(371,194)"/>
<path d="M0 0 C0.66 0.33 1.32 0.66 2 1 C1.42655063 3.86724686 1.1385485 4.8614515 -1 7 C-1.99 7 -2.98 7 -4 7 C-5.36176581 8.98075027 -6.69593116 10.98079663 -8 13 C-8.66 13 -9.32 13 -10 13 C-8.04643572 7.30210418 -4.98086349 3.37987165 0 0 Z " fill="#E6E8F8" transform="translate(389,197)"/>
<path d="M0 0 C3.25 -0.375 3.25 -0.375 6 0 C5.67 1.65 5.34 3.3 5 5 C-1.75 7.125 -1.75 7.125 -4 6 C-2.375 3 -2.375 3 0 0 Z " fill="#D4D9EB" transform="translate(377,209)"/>
<path d="M0 0 C2.25 -0.375 2.25 -0.375 5 0 C7.57514869 3.1319376 9 4.89410579 9 9 C8.34 9 7.68 9 7 9 C7 8.34 7 7.68 7 7 C6.4225 6.896875 5.845 6.79375 5.25 6.6875 C2.67950842 5.90207202 1.06342716 4.69495803 -1 3 C-0.67 2.01 -0.34 1.02 0 0 Z " fill="#2A4F54" transform="translate(429,177)"/>
<path d="M0 0 C0.99 0.33 1.98 0.66 3 1 C1.53033642 4.39859703 -0.38037514 6.64963709 -3 9.25 C-3.70125 9.95640625 -4.4025 10.6628125 -5.125 11.390625 C-7 13 -7 13 -9 13 C-7.53333333 7.5 -7.53333333 7.5 -5 5.125 C-3 4 -3 4 -1 4 C-0.67 2.68 -0.34 1.36 0 0 Z " fill="#314046" transform="translate(410,169)"/>
<path d="M0 0 C0 1.65 0 3.3 0 5 C-3.3 5.33 -6.6 5.66 -10 6 C-9.25 3.5625 -9.25 3.5625 -8 1 C-5.20408963 -0.21156116 -3.12576931 0 0 0 Z " fill="#C5CBD6" transform="translate(366,236)"/>
<path d="M0 0 C8.25 0 16.5 0 25 0 C25 0.33 25 0.66 25 1 C22.60533136 1.36447158 20.2098929 1.7168294 17.8125 2.0625 C17.13896484 2.16626953 16.46542969 2.27003906 15.77148438 2.37695312 C11.90454506 2.92398356 8.77165841 3.02373585 5 2 C3.6078125 1.7215625 3.6078125 1.7215625 2.1875 1.4375 C1.465625 1.293125 0.74375 1.14875 0 1 C0 0.67 0 0.34 0 0 Z " fill="#292E2B" transform="translate(587,763)"/>
<path d="M0 0 C0 0.99 0 1.98 0 3 C-0.99 3.66 -1.98 4.32 -3 5 C-4.19232613 7.05003955 -4.19232613 7.05003955 -5 9 C-5.99 9 -6.98 9 -8 9 C-10.68767578 11.43750025 -10.68767578 11.43750025 -13 14 C-13.33 13.01 -13.66 12.02 -14 11 C-12.23055495 9.53998252 -10.45939429 8.08204407 -8.6875 6.625 C-7.70136719 5.81289062 -6.71523438 5.00078125 -5.69921875 4.1640625 C-3 2 -3 2 0 0 Z " fill="#D6D7E6" transform="translate(427,160)"/>
<path d="M0 0 C0.33 0.99 0.66 1.98 1 3 C-0.1446875 3.804375 -0.1446875 3.804375 -1.3125 4.625 C-4.18022952 6.85504744 -4.18022952 6.85504744 -5.5625 10.1875 C-7 13 -7 13 -9.1875 13.875 C-10.0846875 13.936875 -10.0846875 13.936875 -11 14 C-9.57442379 10.82096506 -7.8226848 8.46341568 -5.5 5.875 C-4.8915625 5.19179687 -4.283125 4.50859375 -3.65625 3.8046875 C-2.46695076 2.50880012 -1.24373566 1.24373566 0 0 Z " fill="#121B17" transform="translate(390,172)"/>
<path d="M0 0 C1.34964844 0.13921875 1.34964844 0.13921875 2.7265625 0.28125 C0.7265625 2.28125 0.7265625 2.28125 -1.0859375 3.03125 C-4.28253511 4.85787721 -6.01024458 7.38939238 -8.2734375 10.28125 C-9.2634375 9.95125 -10.2534375 9.62125 -11.2734375 9.28125 C-10.08714486 7.76375891 -8.87338997 6.26770918 -7.6484375 4.78125 C-6.97554688 3.9459375 -6.30265625 3.110625 -5.609375 2.25 C-3.2734375 0.28125 -3.2734375 0.28125 0 0 Z " fill="#26373A" transform="translate(442.2734375,165.71875)"/>
<path d="M0 0 C0.66 0.33 1.32 0.66 2 1 C2.72888424 5.37330544 3.13869913 9.5616278 3 14 C2.01 13.67 1.02 13.34 0 13 C0 10.36 0 7.72 0 5 C-0.66 4.67 -1.32 4.34 -2 4 C-1.34 2.68 -0.68 1.36 0 0 Z " fill="#C9CFDE" transform="translate(557,262)"/>
<path d="M0 0 C0 0.99 0 1.98 0 3 C-0.66 3.5775 -1.32 4.155 -2 4.75 C-4.38277431 6.96754589 -4.38277431 6.96754589 -4.25 10.75 C-4.1675 11.8225 -4.085 12.895 -4 14 C-4.66 14 -5.32 14 -6 14 C-7.375 11.5 -7.375 11.5 -8 8 C-3.84229391 0 -3.84229391 0 0 0 Z " fill="#DBD7D7" transform="translate(419,733)"/>
<path d="M0 0 C1.37707039 4.13121117 0.03858183 5.95270747 -1.7421875 9.76953125 C-3.44768199 12.79387086 -5.37888189 14.74292607 -8 17 C-8.66 16.67 -9.32 16.34 -10 16 C-9.41992188 15.27296875 -9.41992188 15.27296875 -8.828125 14.53125 C-5.22058046 9.88787584 -2.47597386 5.33286677 0 0 Z " fill="#0E1517" transform="translate(540,262)"/>
<path d="M0 0 C0.66 0.66 1.32 1.32 2 2 C-2.873261 3.5912689 -6.80790596 4.21192221 -12 4 C-11 2 -11 2 -8.8125 0.875 C-5.68229728 -0.09884085 -3.25997268 -0.28977535 0 0 Z " fill="#D9D9DC" transform="translate(407,228)"/>
<path d="M0 0 C0.598125 0.226875 1.19625 0.45375 1.8125 0.6875 C1.008125 1.30625 0.20375 1.925 -0.625 2.5625 C-3.22624519 4.42914041 -3.22624519 4.42914041 -4.1875 6.6875 C-4.2564472 8.06092831 -4.27217708 9.43752102 -4.25 10.8125 C-4.229375 12.09125 -4.20875 13.37 -4.1875 14.6875 C-4.8475 14.6875 -5.5075 14.6875 -6.1875 14.6875 C-7.55887326 10.16196826 -6.81325948 7.07705058 -5.1875 2.6875 C-3.04115854 -0.43445122 -3.04115854 -0.43445122 0 0 Z " fill="#CAC8C8" transform="translate(340.1875,766.3125)"/>
<path d="M0 0 C1.21386936 3.64160808 0.6674695 4.33165469 -0.9375 7.6875 C-1.31777344 8.49574219 -1.69804687 9.30398438 -2.08984375 10.13671875 C-2.39019531 10.75160156 -2.69054687 11.36648438 -3 12 C-3.66 12 -4.32 12 -5 12 C-4.50769231 4.61538462 -4.50769231 4.61538462 -1.9375 1.5 C-1.298125 1.005 -0.65875 0.51 0 0 Z " fill="#293742" transform="translate(407,741)"/>
<path d="M0 0 C-1.76505435 0.86604534 -3.53728074 1.71748642 -5.3125 2.5625 C-6.79169922 3.27599609 -6.79169922 3.27599609 -8.30078125 4.00390625 C-11 5 -11 5 -14 4 C-6.00579542 -1.6322805 -6.00579542 -1.6322805 0 0 Z " fill="#CDCCC8" transform="translate(461,122)"/>
<path d="M0 0 C0.66 0 1.32 0 2 0 C1.67 3.3 1.34 6.6 1 10 C-0.32 10.33 -1.64 10.66 -3 11 C-2.34 10.67 -1.68 10.34 -1 10 C-1.20625 9.0925 -1.4125 8.185 -1.625 7.25 C-2.0127245 3.88972103 -1.80411967 2.75924185 0 0 Z M-5 11 C-4.34 11.33 -3.68 11.66 -3 12 C-4.98 12.99 -4.98 12.99 -7 14 C-6.34 13.01 -5.68 12.02 -5 11 Z " fill="#E4E7EF" transform="translate(395,206)"/>
<path d="M0 0 C0.66 0.33 1.32 0.66 2 1 C-0.06493357 5.02118642 -1.92213943 7.01334998 -6 9 C-6.66 9 -7.32 9 -8 9 C-7.875 7.125 -7.875 7.125 -7 5 C-5.01276732 4.29618843 -3.01222047 3.6288189 -1 3 C-0.67 2.01 -0.34 1.02 0 0 Z " fill="#E4E5EE" transform="translate(432,171)"/>
<path d="M0 0 C0.66 0.33 1.32 0.66 2 1 C-1.96 4.96 -5.92 8.92 -10 13 C-10 8.41771462 -7.08388033 6.1816619 -4 3 C-1.625 1.0625 -1.625 1.0625 0 0 Z " fill="#D3CFCF" transform="translate(401,158)"/>
<path d="M0 0 C0.99 0.33 1.98 0.66 3 1 C3 1.66 3 2.32 3 3 C3.99 3.33 4.98 3.66 6 4 C5.01 4 4.02 4 3 4 C3 5.65 3 7.3 3 9 C1.02 9.99 1.02 9.99 -1 11 C-1.66 10.34 -2.32 9.68 -3 9 C-1.68 9 -0.36 9 1 9 C0.835 8.4225 0.67 7.845 0.5 7.25 C-0.04568523 4.79441648 0 2.52069698 0 0 Z " fill="#323635" transform="translate(485,295)"/>
<path d="M0 0 C1.76949095 -0.10815225 3.54087487 -0.18566083 5.3125 -0.25 C6.29863281 -0.29640625 7.28476562 -0.3428125 8.30078125 -0.390625 C11 0 11 0 14 4 C9.38 3.01 4.76 2.02 0 1 C0 0.67 0 0.34 0 0 Z " fill="#685F5B" transform="translate(514,300)"/>
<path d="M0 0 C0.33 0.66 0.66 1.32 1 2 C-0.78614318 3.03046722 -2.57910018 4.04913236 -4.375 5.0625 C-5.87160156 5.91521484 -5.87160156 5.91521484 -7.3984375 6.78515625 C-8.25695312 7.18605469 -9.11546875 7.58695313 -10 8 C-10.66 7.67 -11.32 7.34 -12 7 C-10.15108879 3.30217758 -6.43044304 2.15430977 -2.6875 0.8125 C-1.800625 0.544375 -0.91375 0.27625 0 0 Z " fill="#D7D4D2" transform="translate(444,127)"/>
<path d="M0 0 C0.66 0 1.32 0 2 0 C2 0.66 2 1.32 2 2 C2.66 2.33 3.32 2.66 4 3 C-2.6 3 -9.2 3 -16 3 C-16 2.67 -16 2.34 -16 2 C-14.92878906 1.93941406 -13.85757812 1.87882813 -12.75390625 1.81640625 C-11.35675609 1.73201463 -9.95962143 1.64736594 -8.5625 1.5625 C-7.50192383 1.50352539 -7.50192383 1.50352539 -6.41992188 1.44335938 C-2.91309581 1.52375562 -2.91309581 1.52375562 0 0 Z " fill="#F4F5F8" transform="translate(450,730)"/>
<path d="M0 0 C3.59391114 1.33488128 6.75490696 2.96022723 10 5 C9.67 5.99 9.34 6.98 9 8 C8.278125 7.360625 7.55625 6.72125 6.8125 6.0625 C4.01808816 4.01326465 2.38336726 3.38667054 -1 3 C-0.67 2.01 -0.34 1.02 0 0 Z " fill="#102C33" transform="translate(426,179)"/>
<path d="M0 0 C-1.44472346 3.80881639 -3.32603071 5.29742886 -7 7 C-7.99 6.67 -8.98 6.34 -10 6 C-2.6 0 -2.6 0 0 0 Z " fill="#252C2B" transform="translate(441,131)"/>
<path d="M0 0 C0.33 0 0.66 0 1 0 C1.33 4.29 1.66 8.58 2 13 C1.01 13.33 0.02 13.66 -1 14 C-0.67 9.38 -0.34 4.76 0 0 Z " fill="#B3BBC8" transform="translate(558,248)"/>
<path d="M0 0 C1.32 0 2.64 0 4 0 C3.690625 0.53625 3.38125 1.0725 3.0625 1.625 C1.82172561 4.3984957 1.4090325 7.00042837 1 10 C0.34 10 -0.32 10 -1 10 C-1.33 8.02 -1.66 6.04 -2 4 C-1.34 3.67 -0.68 3.34 0 3 C0 2.01 0 1.02 0 0 Z " fill="#E6E9F3" transform="translate(412,188)"/>
<path d="M0 0 C0.66 0.33 1.32 0.66 2 1 C-0.23407889 4.35111834 -1.26215824 5.81553956 -5.25 6.8125 C-6.61125 6.9053125 -6.61125 6.9053125 -8 7 C-5.42215154 4.35247996 -3.08351902 2.05567935 0 0 Z " fill="#131B17" transform="translate(426,706)"/>
<path d="M0 0 C0.33 0 0.66 0 1 0 C1.33 2.31 1.66 4.62 2 7 C-0.64 7 -3.28 7 -6 7 C-5.38125 6.95875 -4.7625 6.9175 -4.125 6.875 C-3.42375 6.58625 -2.7225 6.2975 -2 6 C-0.6954344 3.00384054 -0.6954344 3.00384054 0 0 Z " fill="#ABA6A2" transform="translate(610,756)"/>
<path d="M0 0 C0.99 0.33 1.98 0.66 3 1 C0.75 3.5625 0.75 3.5625 -2 6 C-4.3125 5.8125 -4.3125 5.8125 -6 5 C-4.6875 3.5 -4.6875 3.5 -3 2 C-2.01 2 -1.02 2 0 2 C0 1.34 0 0.68 0 0 Z " fill="#C8C6C3" transform="translate(409,716)"/>
<path d="M0 0 C1.32 1.32 2.64 2.64 4 4 C0.7 4 -2.6 4 -6 4 C-2 1 -2 1 0 0 Z " fill="#B8B1AD" transform="translate(474,286)"/>
<path d="M0 0 C2.4375 0.375 2.4375 0.375 5 1 C5.33 1.66 5.66 2.32 6 3 C3.69 3.66 1.38 4.32 -1 5 C-0.67 3.35 -0.34 1.7 0 0 Z " fill="#DEE7E7" transform="translate(376,233)"/>
<path d="M0 0 C0.66 0.66 1.32 1.32 2 2 C0.35 3.98 -1.3 5.96 -3 8 C-3.66 7.67 -4.32 7.34 -5 7 C-5 6.01 -5 5.02 -5 4 C-2.5 1.8125 -2.5 1.8125 0 0 Z " fill="#394B54" transform="translate(400,181)"/>
<path d="M0 0 C0.33 1.32 0.66 2.64 1 4 C-2.6441774 6.4294516 -4.71241272 6.16179575 -9 6 C-9 5.67 -9 5.34 -9 5 C-7.02 5 -5.04 5 -3 5 C-2.690625 4.360625 -2.38125 3.72125 -2.0625 3.0625 C-1 1 -1 1 0 0 Z " fill="#151818" transform="translate(627,778)"/>
<path d="M0 0 C0.33 0 0.66 0 1 0 C0.6875 3.375 0.6875 3.375 0 7 C-0.99 7.66 -1.98 8.32 -3 9 C-2.5020163 5.26512223 -2.12508244 3.18762365 0 0 Z " fill="#DFE2F5" transform="translate(407,745)"/>
<path d="M0 0 C1.65 0 3.3 0 5 0 C3.02579865 2.52259061 2.03254358 2.9929808 -1.1875 3.6875 C-2.5796875 3.8421875 -2.5796875 3.8421875 -4 4 C-4.33 3.34 -4.66 2.68 -5 2 C-3.35 2 -1.7 2 0 2 C0 1.34 0 0.68 0 0 Z " fill="#E1DEDF" transform="translate(655,268)"/>
<path d="M0 0 C1.32 0.66 2.64 1.32 4 2 C3.67 2.99 3.34 3.98 3 5 C1.68 5 0.36 5 -1 5 C-1.33 4.01 -1.66 3.02 -2 2 C-1.34 1.34 -0.68 0.68 0 0 Z " fill="#C8CEDF" transform="translate(377,209)"/>
<path d="M0 0 C2.0625 0.4375 2.0625 0.4375 4 1 C2.71937515 2.7074998 1.38232443 4.37373596 0 6 C-0.66 6 -1.32 6 -2 6 C-1.125 1.125 -1.125 1.125 0 0 Z " fill="#374D55" transform="translate(387,194)"/>
<path d="M0 0 C0.99 0 1.98 0 3 0 C3.33 3.3 3.66 6.6 4 10 C0 4 0 4 0 0 Z " fill="#C5C3CA" transform="translate(669,766)"/>
<path d="M0 0 C2.31 0.33 4.62 0.66 7 1 C6.67 1.66 6.34 2.32 6 3 C3.69 3 1.38 3 -1 3 C-0.67 2.01 -0.34 1.02 0 0 Z " fill="#363940" transform="translate(425,734)"/>
<path d="M0 0 C0.66 0.66 1.32 1.32 2 2 C1.01 3.32 0.02 4.64 -1 6 C-2.32 5.34 -3.64 4.68 -5 4 C-3.35 2.68 -1.7 1.36 0 0 Z " fill="#2F3745" transform="translate(429,720)"/>
<path d="M0 0 C0 1.98 0 3.96 0 6 C-2.31 5.01 -4.62 4.02 -7 3 C-2.5 0 -2.5 0 0 0 Z " fill="#393334" transform="translate(528,297)"/>
<path d="M0 0 C1.4835001 0.42257276 2.96176424 0.86356322 4.4375 1.3125 C5.67306641 1.67794922 5.67306641 1.67794922 6.93359375 2.05078125 C7.61550781 2.36402344 8.29742187 2.67726563 9 3 C9.33 3.99 9.66 4.98 10 6 C5.56909529 4.79157144 3.01887244 3.48331435 0 0 Z " fill="#CBCCCB" transform="translate(489,278)"/>
<path d="M0 0 C1 3 1 3 0.0625 5.1875 C-0.4634375 6.0846875 -0.4634375 6.0846875 -1 7 C-1.99 7 -2.98 7 -4 7 C-2.92598892 4.08482708 -2.22189824 2.22189824 0 0 Z " fill="#E4E3F6" transform="translate(431,721)"/>
<path d="M0 0 C0.93065133 2.60582371 1.14917407 3.64198224 0.0625 6.25 C-0.4634375 7.11625 -0.4634375 7.11625 -1 8 C-1.66 8 -2.32 8 -3 8 C-2.25 2.25 -2.25 2.25 0 0 Z " fill="#1F3C41" transform="translate(551,268)"/>
<path d="M0 0 C0.33 0 0.66 0 1 0 C1 1.98 1 3.96 1 6 C-0.65 5.67 -2.3 5.34 -4 5 C-2.69254251 3.31295807 -1.35827971 1.64639965 0 0 Z " fill="#999486" transform="translate(547,281)"/>
<path d="M0 0 C0.66 0.33 1.32 0.66 2 1 C2 1.66 2 2.32 2 3 C2.66 3 3.32 3 4 3 C4 3.66 4 4.32 4 5 C2.02 5 0.04 5 -2 5 C-1.34 3.35 -0.68 1.7 0 0 Z " fill="#B9C1C3" transform="translate(358,237)"/>
<path d="M0 0 C0.66 0.99 1.32 1.98 2 3 C0.68 4.32 -0.64 5.64 -2 7 C-2.33 5.68 -2.66 4.36 -3 3 C-2.01 2.67 -1.02 2.34 0 2 C0 1.34 0 0.68 0 0 Z " fill="#273439" transform="translate(380,202)"/>
<path d="M0 0 C0.99 0.33 1.98 0.66 3 1 C-1.39453125 5.00390625 -1.39453125 5.00390625 -3 6 C-3.99 5.67 -4.98 5.34 -6 5 C-5.34 5 -4.68 5 -4 5 C-4 4.34 -4 3.68 -4 3 C-2.1875 1.3125 -2.1875 1.3125 0 0 Z " fill="#313C47" transform="translate(420,163)"/>
</svg>
